<svg width="151" height="150" viewBox="0 0 151 150" fill="none" xmlns="http://www.w3.org/2000/svg">
<g clip-path="url(#clip0)">
<path d="M126.203 0H23.5882C18.2208 0 14.1161 4.0626 14.1161 9.375V140.625C14.1161 145.937 18.2208 150 23.5882 150H126.519C131.886 150 135.991 145.937 135.991 140.625V9.375C135.676 4.0626 131.571 0 126.203 0Z" fill="#D8D6CC"/>
<path d="M18.7911 37.502H4.9611C2.28432 37.502 0.0535889 34.3059 0.0535889 30.4707C0.0535889 26.6355 2.28432 23.4395 4.9611 23.4395H18.5682C21.245 23.4395 23.4757 26.6355 23.4757 30.4707C23.6986 34.3059 21.4679 37.502 18.7911 37.502Z" fill="#58626F"/>
<path d="M18.7911 126.564H4.9611C2.28432 126.564 0.0535889 123.369 0.0535889 119.533C0.0535889 115.698 2.28432 112.502 4.9611 112.502H18.5682C21.245 112.502 23.4757 115.698 23.4757 119.533C23.6986 123.369 21.4679 126.564 18.7911 126.564Z" fill="#58626F"/>
<path d="M146.928 32.4983H136.928V13.436H146.928C148.49 13.436 150.053 14.6861 150.053 16.5611V29.6861C150.053 31.2485 148.803 32.4983 146.928 32.4983Z" fill="#5CB1FF"/>
<path d="M146.928 59.6875H136.928V40.3126H146.928C148.49 40.3126 150.053 41.5627 150.053 43.4377V56.5627C150.053 58.4377 148.803 59.6875 146.928 59.6875Z" fill="#4FCFD7"/>
<path d="M146.928 86.8748H136.928V67.4999H146.928C148.49 67.4999 150.053 68.75 150.053 70.625V83.75C150.053 85.625 148.803 86.8748 146.928 86.8748Z" fill="#FF8D5B"/>
<path d="M76.9276 108.75C95.5672 108.75 110.678 93.6396 110.678 75C110.678 56.3604 95.5672 41.2501 76.9276 41.2501C58.2879 41.2501 43.1776 56.3604 43.1776 75C43.1776 93.6396 58.2879 108.75 76.9276 108.75Z" fill="white"/>
<path d="M102.555 90.6253C102.555 87.5002 100.367 84.6877 97.5549 83.7502C84.1173 79.6879 69.7425 79.6879 56.3049 83.7505C53.1798 84.688 51.3048 87.5005 51.3048 90.6256V96.8755C57.555 104.063 66.6174 108.75 76.9299 108.75C87.2424 108.75 96.3048 104.063 102.555 96.8755V90.6253Z" fill="#A9A29A"/>
<path d="M76.9299 75.0006C84.3513 75.0006 90.3675 68.9843 90.3675 61.563C90.3675 54.1416 84.3513 48.1254 76.9299 48.1254C69.5085 48.1254 63.4923 54.1416 63.4923 61.563C63.4923 68.9843 69.5085 75.0006 76.9299 75.0006Z" fill="#A9A29A"/>
</g>
<defs>
<clipPath id="clip0">
<rect width="150" height="150" fill="white" transform="translate(0.0535889)"/>
</clipPath>
</defs>
</svg>
