<svg width="150" height="150" viewBox="0 0 150 150" fill="none" xmlns="http://www.w3.org/2000/svg">
<g clip-path="url(#clip0)">
<path d="M125.952 0H24.0206C18.6889 0 14.6116 4.0626 14.6116 9.375V140.625C14.6116 145.937 18.6889 150 24.0206 150H126.265C131.597 150 135.674 145.937 135.674 140.625V9.375C135.361 4.0626 131.283 0 125.952 0Z" fill="#D8D6CC"/>
<path d="M19.2554 37.502H5.51762C2.85868 37.502 0.642822 34.3059 0.642822 30.4707C0.642822 26.6355 2.85868 23.4395 5.51762 23.4395H19.034C21.6929 23.4395 23.9088 26.6355 23.9088 30.4707C24.1302 34.3059 21.9144 37.502 19.2554 37.502Z" fill="#58626F"/>
<path d="M19.2554 126.564H5.51762C2.85868 126.564 0.642822 123.369 0.642822 119.533C0.642822 115.698 2.85868 112.502 5.51762 112.502H19.034C21.6929 112.502 23.9088 115.698 23.9088 119.533C24.1302 123.369 21.9144 126.564 19.2554 126.564Z" fill="#58626F"/>
<path d="M146.538 32.4983H136.605V13.436H146.538C148.09 13.436 149.642 14.6861 149.642 16.5611V29.6861C149.642 31.2485 148.401 32.4983 146.538 32.4983Z" fill="#5CB1FF"/>
<path d="M146.538 59.6875H136.605V40.3126H146.538C148.09 40.3126 149.642 41.5627 149.642 43.4377V56.5627C149.642 58.4377 148.401 59.6875 146.538 59.6875Z" fill="#4FCFD7"/>
<path d="M146.538 86.8748H136.605V67.4999H146.538C148.09 67.4999 149.642 68.75 149.642 70.625V83.75C149.642 85.625 148.401 86.8748 146.538 86.8748Z" fill="#FF8D5B"/>
<path d="M77.0043 108.75C95.5197 108.75 110.529 93.6397 110.529 75.0001C110.529 56.3604 95.5197 41.2501 77.0043 41.2501C58.489 41.2501 43.4793 56.3604 43.4793 75.0001C43.4793 93.6397 58.489 108.75 77.0043 108.75Z" fill="white"/>
<path d="M102.461 90.6253C102.461 87.5002 100.288 84.6877 97.4941 83.7502C84.1461 79.6879 69.8671 79.6879 56.5191 83.7505C53.4149 84.688 51.5524 87.5005 51.5524 90.6256V96.8755C57.7609 104.063 66.7629 108.75 77.0066 108.75C87.2504 108.75 96.2524 104.063 102.461 96.8755V90.6253Z" fill="#A9A29A"/>
<path d="M77.0066 75.0006C84.3785 75.0006 90.3546 68.9843 90.3546 61.563C90.3546 54.1416 84.3785 48.1254 77.0066 48.1254C69.6347 48.1254 63.6586 54.1416 63.6586 61.563C63.6586 68.9843 69.6347 75.0006 77.0066 75.0006Z" fill="#A9A29A"/>
</g>
<defs>
<clipPath id="clip0">
<rect width="149" height="150" fill="white" transform="translate(0.642822)"/>
</clipPath>
</defs>
</svg>
