<svg width="28" height="28" viewBox="0 0 28 28" fill="none" xmlns="http://www.w3.org/2000/svg">
<path d="M23.548 0H4.39314C3.39121 0 2.625 0.758352 2.625 1.75V26.25C2.625 27.2416 3.39121 28 4.39314 28H23.6069C24.6088 28 25.375 27.2416 25.375 26.25V1.75C25.3161 0.758352 24.5499 0 23.548 0Z" fill="#D8D6CC"/>
<path d="M3.49767 7.00024H0.91607C0.416402 7.00024 0 6.40364 0 5.68774C0 4.97184 0.416402 4.37524 0.91607 4.37524H3.45606C3.95573 4.37524 4.37213 4.97184 4.37213 5.68774C4.41374 6.40364 3.99734 7.00024 3.49767 7.00024Z" fill="#58626F"/>
<path d="M3.49767 23.6252H0.91607C0.416402 23.6252 0 23.0287 0 22.3128C0 21.5969 0.416402 21.0002 0.91607 21.0002H3.45606C3.95573 21.0002 4.37213 21.5969 4.37213 22.3128C4.41374 23.0287 3.99734 23.6252 3.49767 23.6252Z" fill="#58626F"/>
<path d="M27.4166 6.06635H25.5499V2.50806H27.4166C27.7082 2.50806 27.9999 2.74141 27.9999 3.09141V5.54141C27.9999 5.83306 27.7666 6.06635 27.4166 6.06635Z" fill="#5CB1FF"/>
<path d="M27.4166 11.1416H25.5499V7.5249H27.4166C27.7082 7.5249 27.9999 7.75825 27.9999 8.10825V10.5583C27.9999 10.9083 27.7666 11.1416 27.4166 11.1416Z" fill="#4FCFD7"/>
<path d="M27.4166 16.2167H25.5499V12.6001H27.4166C27.7082 12.6001 27.9999 12.8334 27.9999 13.1834V15.6334C27.9999 15.9834 27.7666 16.2167 27.4166 16.2167Z" fill="#FF8D5B"/>
<path d="M14.3498 20.2999C17.8292 20.2999 20.6498 17.4793 20.6498 13.9999C20.6498 10.5206 17.8292 7.69995 14.3498 7.69995C10.8704 7.69995 8.0498 10.5206 8.0498 13.9999C8.0498 17.4793 10.8704 20.2999 14.3498 20.2999Z" fill="white"/>
<path d="M19.1336 16.9167C19.1336 16.3334 18.7252 15.8084 18.2002 15.6334C15.6919 14.8751 13.0086 14.8751 10.5002 15.6334C9.91689 15.8084 9.56689 16.3334 9.56689 16.9168V18.0834C10.7336 19.4251 12.4252 20.3001 14.3502 20.3001C16.2752 20.3001 17.9669 19.4251 19.1336 18.0834V16.9167Z" fill="#A9A29A"/>
<path d="M14.3502 14.0001C15.7356 14.0001 16.8586 12.8771 16.8586 11.4917C16.8586 10.1064 15.7356 8.9834 14.3502 8.9834C12.9649 8.9834 11.8419 10.1064 11.8419 11.4917C11.8419 12.8771 12.9649 14.0001 14.3502 14.0001Z" fill="#A9A29A"/>
</svg>
