<svg width="28" height="28" viewBox="0 0 28 28" fill="none" xmlns="http://www.w3.org/2000/svg">
<g clip-path="url(#clip0)">
<path d="M6.24796 28.0752C7.02116 28.0752 7.64796 27.4484 7.64796 26.6752L7.64796 25.7479C7.64796 25.2518 7.24577 24.8496 6.7497 24.8496L4.7481 24.8496C4.25197 24.8496 3.84979 25.2518 3.84979 25.7479L3.84979 26.6752C3.84979 27.4484 4.47659 28.0752 5.24979 28.0752L6.24796 28.0752Z" fill="#5F6677"/>
<path d="M22.8488 28.0752C23.622 28.0752 24.2488 27.4484 24.2488 26.6752L24.2488 25.7479C24.2488 25.2518 23.8466 24.8496 23.3505 24.8496L21.3489 24.8496C20.8527 24.8496 20.4506 25.2518 20.4506 25.7479L20.4506 26.6752C20.4506 27.4484 21.0774 28.0752 21.8506 28.0752L22.8488 28.0752Z" fill="#5F6677"/>
<path d="M2.64493 26.25H25.3551C26.8158 26.25 28 25.1398 28 23.7704V2.47962C28 1.11018 26.8158 0 25.3551 0H2.64493C1.18419 0 2.68402e-07 1.11018 2.68402e-07 2.47962V23.7704C2.68402e-07 25.1398 1.18419 26.25 2.64493 26.25Z" fill="#A4AAB9"/>
<rect x="2.26658" y="1.91667" width="23.4667" height="22.0667" rx="1.16667" stroke="#757D91" stroke-width="0.333333"/>
<path d="M25.7249 8.75C26.2081 8.75 26.5999 9.18528 26.5999 9.72219L26.5999 16.5278C26.5999 17.0648 26.2081 17.5 25.7249 17.5C25.2416 17.5 24.8499 17.0647 24.8499 16.5278L24.8499 9.72219C24.8499 9.18528 25.2416 8.75 25.7249 8.75V8.75Z" fill="#5F6677"/>
<path d="M15.4691 15.3821L18.5688 18.4818C18.9844 18.8979 18.9844 19.5723 18.5688 19.9884C18.1527 20.4039 17.4784 20.4039 17.0623 19.9884L13.9626 16.8886C14.5803 16.5182 15.0987 15.9997 15.4691 15.3821Z" fill="#6F7688"/>
<path d="M5.61494 5.96939C5.88753 5.96939 6.16017 6.07362 6.36819 6.2812L9.46793 9.38094C8.85031 9.75133 8.33182 10.2698 7.96143 10.8875L4.86169 7.78771C4.44609 7.37162 4.44609 6.69724 4.86169 6.2812C5.06975 6.07362 5.34234 5.96939 5.61494 5.96939V5.96939Z" fill="#6F7688"/>
<path d="M4.86169 18.4818L7.96143 15.3821C8.33182 15.9997 8.85031 16.5182 9.46793 16.8886L6.36819 19.9884C5.9521 20.4039 5.27773 20.4039 4.86169 19.9884C4.44609 19.5723 4.44609 18.8979 4.86169 18.4818V18.4818Z" fill="#6F7688"/>
<path d="M18.5688 6.2812C18.7764 6.48922 18.8806 6.76186 18.8806 7.03445C18.8806 7.30705 18.7764 7.57969 18.5688 7.78771L15.4691 10.8875C15.0987 10.2698 14.5802 9.75133 13.9626 9.38095L17.0623 6.2812C17.4784 5.8656 18.1528 5.8656 18.5688 6.2812V6.2812Z" fill="#6F7688"/>
<path fill-rule="evenodd" clip-rule="evenodd" d="M16.6878 16.2669C16.1088 17.1708 15.8242 17.4555 14.9202 18.0345C14.0163 18.6135 12.9415 18.9492 11.7883 18.9492C10.6351 18.9492 9.56036 18.6135 8.65644 18.0346C7.75252 17.4556 7.46786 17.171 6.88881 16.267C6.30977 15.3631 5.97405 14.2883 5.97405 13.135C5.97405 11.9817 6.30979 10.9069 6.88888 10.0029C7.46796 9.09891 7.75264 8.8143 8.65654 8.23537C9.56044 7.65644 10.6351 7.3208 11.7883 7.3208C12.9415 7.3208 14.0163 7.65649 14.9202 8.23551C15.8242 8.81452 16.1088 9.09916 16.6878 10.0031C17.2668 10.907 17.6025 11.9818 17.6025 13.135C17.6025 14.2882 17.2668 15.363 16.6878 16.2669ZM11.7883 16.0074C10.2018 16.0074 8.91588 14.7215 8.91588 13.135C8.91588 11.5485 10.2018 10.2626 11.7883 10.2626C13.3747 10.2626 14.6607 11.5485 14.6607 13.135C14.6607 14.7215 13.3747 16.0074 11.7883 16.0074Z" fill="#6F7688"/>
<path d="M7.74835 13.1346C7.74835 10.9034 9.55705 9.09467 11.7883 9.09467C14.0196 9.09467 15.8282 10.9034 15.8282 13.1346C15.8282 15.3659 14.0196 17.1746 11.7883 17.1746C9.55705 17.1746 7.74835 15.3659 7.74835 13.1346ZM14.345 13.1346C14.345 11.7225 13.2004 10.5779 11.7883 10.5779C10.3762 10.5779 9.23166 11.7225 9.23166 13.1346C9.23166 14.5467 10.3762 15.6913 11.7883 15.6913C13.2004 15.6913 14.345 14.5467 14.345 13.1346V13.1346Z" fill="#D6DAE4"/>
<path fill-rule="evenodd" clip-rule="evenodd" d="M11.7883 10.578C13.2005 10.578 14.345 11.7226 14.345 13.1347C14.345 14.5468 13.2005 15.6914 11.7883 15.6914C10.3762 15.6914 9.23166 14.5468 9.23166 13.1347C9.23166 11.7226 10.3762 10.578 11.7883 10.578Z" fill="#B7BDCC"/>
</g>
<defs>
<clipPath id="clip0">
<rect width="28" height="28" fill="white" transform="matrix(-1 0 0 1 28 0)"/>
</clipPath>
</defs>
</svg>
