<svg width="150" height="150" viewBox="0 0 150 150" fill="none" xmlns="http://www.w3.org/2000/svg">
<g clip-path="url(#clip0)">
<path d="M33.8908 150.403C38.0054 150.403 41.3408 147.045 41.3408 142.903L41.3408 137.936C41.3408 135.278 39.2006 133.124 36.5608 133.124L25.9094 133.124C23.2693 133.124 21.1291 135.278 21.1291 137.936L21.1291 142.903C21.1291 147.045 24.4646 150.403 28.5791 150.403L33.8908 150.403Z" fill="#5F6677"/>
<path d="M122.231 150.403C126.345 150.403 129.681 147.045 129.681 142.903L129.681 137.936C129.681 135.278 127.541 133.124 124.901 133.124L114.249 133.124C111.609 133.124 109.469 135.278 109.469 137.936L109.469 142.903C109.469 147.045 112.805 150.403 116.919 150.403L122.231 150.403Z" fill="#5F6677"/>
<path d="M14.7176 140.625H135.568C143.341 140.625 149.643 134.678 149.643 127.341V13.2837C149.643 5.94738 143.341 0 135.568 0H14.7176C6.9444 0 0.642828 5.94738 0.642828 13.2837V127.341C0.642828 134.678 6.9444 140.625 14.7176 140.625Z" fill="#A4AAB9"/>
<rect x="12.7102" y="10.2679" width="124.864" height="118.214" rx="6.25" stroke="#757D91" stroke-width="1.78571"/>
<path d="M137.536 46.875C140.108 46.875 142.192 49.2069 142.192 52.0831L142.192 88.5419C142.192 91.4185 140.108 93.75 137.536 93.75C134.964 93.75 132.88 91.4181 132.88 88.5419L132.88 52.0831C132.88 49.2069 134.964 46.875 137.536 46.875V46.875Z" fill="#5F6677"/>
<path d="M82.9601 82.4041L99.4552 99.0099C101.667 101.239 101.667 104.852 99.4552 107.08C97.241 109.307 93.6524 109.307 91.4384 107.08L74.9434 90.4747C78.2302 88.4904 80.9891 85.7128 82.9601 82.4041Z" fill="#6F7688"/>
<path d="M30.5223 31.9792C31.9729 31.9792 33.4237 32.5376 34.5307 33.6496L51.0257 50.2554C47.7391 52.2396 44.98 55.0172 43.009 58.3259L26.5139 41.7201C24.3023 39.4911 24.3023 35.8784 26.5139 33.6496C27.6211 32.5376 29.0717 31.9792 30.5223 31.9792V31.9792Z" fill="#6F7688"/>
<path d="M26.5139 99.0099L43.009 82.4041C44.98 85.7128 47.7391 88.4904 51.0257 90.4747L34.5307 107.08C32.3165 109.307 28.7278 109.307 26.5139 107.08C24.3023 104.851 24.3023 101.239 26.5139 99.0099V99.0099Z" fill="#6F7688"/>
<path d="M99.4552 33.6496C100.56 34.764 101.114 36.2245 101.114 37.6849C101.114 39.1452 100.56 40.6058 99.4552 41.7201L82.9601 58.3259C80.9891 55.0172 78.23 52.2396 74.9434 50.2554L91.4384 33.6496C93.6526 31.4232 97.2413 31.4232 99.4552 33.6496V33.6496Z" fill="#6F7688"/>
<path fill-rule="evenodd" clip-rule="evenodd" d="M89.4456 87.1434C86.3646 91.9858 84.8499 93.5107 80.0396 96.6127C75.2293 99.7146 69.5099 101.513 63.3731 101.513C57.2365 101.513 51.5174 99.7148 46.7073 96.6131C41.8971 93.5115 40.3823 91.9868 37.301 87.1441C34.2196 82.3015 32.4331 76.5436 32.4331 70.3654C32.4331 64.1871 34.2198 58.429 37.3013 53.5862C40.3829 48.7435 41.8978 47.2188 46.7078 44.1174C51.5178 41.016 57.2368 39.2179 63.3731 39.2179C69.5099 39.2179 75.2292 41.0163 80.0395 44.1181C84.8497 47.22 86.3644 48.7449 89.4455 53.5874C92.5266 58.4299 94.313 64.1875 94.313 70.3654C94.313 76.5433 92.5267 82.3009 89.4456 87.1434ZM63.3731 85.7532C54.9308 85.7532 48.0879 78.8644 48.0879 70.3654C48.0879 61.8665 54.9308 54.9777 63.3731 54.9777C71.8154 54.9777 78.6583 61.8665 78.6583 70.3654C78.6583 78.8644 71.8154 85.7532 63.3731 85.7532Z" fill="#6F7688"/>
<path d="M41.875 70.364C41.875 58.4108 51.4999 48.7214 63.3733 48.7214C75.2467 48.7214 84.8716 58.4108 84.8716 70.364C84.8716 82.3171 75.2467 92.0065 63.3733 92.0065C51.4999 92.0065 41.875 82.3171 41.875 70.364ZM76.9787 70.364C76.9787 62.7991 70.8879 56.6674 63.3735 56.6674C55.8591 56.6674 49.7683 62.7991 49.7683 70.364C49.7683 77.9288 55.8591 84.0605 63.3735 84.0605C70.8879 84.0605 76.9787 77.9288 76.9787 70.364V70.364Z" fill="#D6DAE4"/>
<path fill-rule="evenodd" clip-rule="evenodd" d="M63.3737 56.6687C70.8881 56.6687 76.9789 62.8003 76.9789 70.3652C76.9789 77.93 70.8881 84.0617 63.3737 84.0617C55.8592 84.0617 49.7684 77.93 49.7684 70.3652C49.7684 62.8003 55.8592 56.6687 63.3737 56.6687Z" fill="#B7BDCC"/>
</g>
<defs>
<clipPath id="clip0">
<rect width="149" height="150" fill="white" transform="matrix(-1 0 0 1 149.643 0)"/>
</clipPath>
</defs>
</svg>
