<svg width="151" height="150" viewBox="0 0 151 150" fill="none" xmlns="http://www.w3.org/2000/svg">
<g clip-path="url(#clip0)">
<path d="M33.5248 150.403C37.667 150.403 41.0248 147.045 41.0248 142.903L41.0248 137.936C41.0248 135.278 38.8702 133.124 36.2127 133.124L25.4899 133.124C22.832 133.124 20.6775 135.278 20.6775 137.936L20.6775 142.903C20.6775 147.045 24.0353 150.403 28.1775 150.403L33.5248 150.403Z" fill="#5F6677"/>
<path d="M122.458 150.403C126.6 150.403 129.958 147.045 129.958 142.903L129.958 137.936C129.958 135.278 127.803 133.124 125.145 133.124L114.422 133.124C111.765 133.124 109.61 135.278 109.61 137.936L109.61 142.903C109.61 147.045 112.968 150.403 117.11 150.403L122.458 150.403Z" fill="#5F6677"/>
<path d="M14.2229 140.625H135.884C143.71 140.625 150.054 134.678 150.054 127.341V13.2837C150.054 5.94737 143.71 0 135.884 0H14.2229C6.39747 0 0.0536106 5.94737 0.0536106 13.2837V127.341C0.0536106 134.678 6.39747 140.625 14.2229 140.625Z" fill="#A4AAB9"/>
<rect x="12.196" y="10.2679" width="125.714" height="118.214" rx="6.25" stroke="#757D91" stroke-width="1.78571"/>
<path d="M137.865 46.875C140.454 46.875 142.553 49.2069 142.553 52.0831L142.553 88.5419C142.553 91.4185 140.454 93.75 137.866 93.75C135.277 93.75 133.178 91.4181 133.178 88.5419L133.178 52.0832C133.178 49.2069 135.276 46.875 137.865 46.875V46.875Z" fill="#5F6677"/>
<path d="M82.9234 82.4041L99.5292 99.0099C101.756 101.239 101.756 104.852 99.5292 107.08C97.3001 109.307 93.6874 109.307 91.4586 107.08L74.8528 90.4747C78.1618 88.4904 80.9392 85.7128 82.9234 82.4041Z" fill="#6F7688"/>
<path d="M30.1336 31.9792C31.5939 31.9792 33.0545 32.5376 34.1689 33.6496L50.7747 50.2554C47.466 52.2396 44.6883 55.0172 42.7041 58.3259L26.0983 41.7201C23.8719 39.4911 23.8719 35.8784 26.0983 33.6496C27.213 32.5376 28.6733 31.9792 30.1336 31.9792V31.9792Z" fill="#6F7688"/>
<path d="M26.0983 99.0099L42.7041 82.4041C44.6883 85.7128 47.466 88.4904 50.7747 90.4747L34.1689 107.08C31.9399 109.307 28.3271 109.307 26.0983 107.08C23.8719 104.851 23.8719 101.239 26.0983 99.0099V99.0099Z" fill="#6F7688"/>
<path d="M99.5292 33.6496C100.641 34.764 101.2 36.2245 101.2 37.6849C101.2 39.1452 100.641 40.6058 99.5292 41.7202L82.9234 58.3259C80.9392 55.0172 78.1615 52.2396 74.8528 50.2554L91.4586 33.6496C93.6876 31.4232 97.3004 31.4232 99.5292 33.6496V33.6496Z" fill="#6F7688"/>
<path fill-rule="evenodd" clip-rule="evenodd" d="M89.4524 87.1434C86.3507 91.9858 84.8258 93.5107 79.9833 96.6127C75.1407 99.7146 69.3829 101.513 63.2049 101.513C57.0271 101.513 51.2696 99.7148 46.4272 96.6131C41.5848 93.5115 40.0598 91.9868 36.9578 87.1441C33.8558 82.3015 32.0573 76.5436 32.0573 70.3654C32.0573 64.1871 33.8559 58.429 36.9581 53.5862C40.0604 48.7435 41.5854 47.2188 46.4277 44.1174C51.2701 41.016 57.0274 39.2179 63.2049 39.2179C69.3828 39.2179 75.1405 41.0163 79.9831 44.1181C84.8257 47.22 86.3505 48.7449 89.4523 53.5874C92.5541 58.4299 94.3524 64.1875 94.3524 70.3654C94.3524 76.5433 92.5541 82.3009 89.4524 87.1434ZM63.2049 85.7532C54.7059 85.7532 47.8171 78.8644 47.8171 70.3654C47.8171 61.8665 54.7059 54.9777 63.2049 54.9777C71.7038 54.9777 78.5926 61.8665 78.5926 70.3654C78.5926 78.8644 71.7038 85.7532 63.2049 85.7532Z" fill="#6F7688"/>
<path d="M41.5625 70.364C41.5625 58.4108 51.2519 48.7214 63.205 48.7214C75.1582 48.7214 84.8476 58.4108 84.8476 70.364C84.8476 82.3171 75.1582 92.0065 63.205 92.0065C51.2519 92.0065 41.5625 82.3171 41.5625 70.364ZM76.9018 70.364C76.9018 62.7991 70.7701 56.6674 63.2053 56.6674C55.6404 56.6674 49.5087 62.7991 49.5087 70.364C49.5087 77.9288 55.6404 84.0605 63.2053 84.0605C70.7701 84.0605 76.9018 77.9288 76.9018 70.364V70.364Z" fill="#D6DAE4"/>
<path fill-rule="evenodd" clip-rule="evenodd" d="M63.2054 56.6686C70.7703 56.6687 76.902 62.8003 76.902 70.3652C76.902 77.93 70.7703 84.0617 63.2054 84.0617C55.6406 84.0617 49.5089 77.93 49.5089 70.3652C49.5089 62.8003 55.6406 56.6686 63.2054 56.6686Z" fill="#B7BDCC"/>
</g>
<defs>
<clipPath id="clip0">
<rect width="150" height="150" fill="white" transform="matrix(-1 0 0 1 150.054 0)"/>
</clipPath>
</defs>
</svg>
