<svg width="150" height="150" viewBox="0 0 150 150" fill="none" xmlns="http://www.w3.org/2000/svg">
<path d="M27.3688 0C22.7485 0 19 3.73186 19 8.3333V141.668C19 146.27 22.7485 150 27.3688 150H123.631C128.254 150 132 146.27 132 141.668V43.8541C132 40.4918 130.624 37.2748 128.188 34.9454L95.2554 3.44534C92.9442 1.23464 89.8634 0 86.6583 0H27.3688Z" fill="#F5DD81"/>
<path d="M124.382 39.629C125.739 40.9274 124.82 43.2176 122.942 43.2176H95.7776C91.1005 43.2176 87.3099 39.4437 87.3099 34.7874V9.04342C87.3099 7.20972 89.508 6.27053 90.8331 7.53805L124.382 39.629Z" fill="#E4BD53"/>
<path fill-rule="evenodd" clip-rule="evenodd" d="M43 118C43 115.791 44.7909 114 47 114H83.6875C85.8966 114 87.6875 115.791 87.6875 118C87.6875 120.209 85.8966 122 83.6875 122H47C44.7909 122 43 120.209 43 118Z" fill="#E4BD53"/>
<path d="M104 98H47C44.7909 98 43 99.7909 43 102C43 104.209 44.7909 106 47 106H104C106.209 106 108 104.209 108 102C108 99.7909 106.209 98 104 98Z" fill="#E4BD53"/>
<path d="M47 66H83C85.2091 66 87 67.7909 87 70C87 72.2091 85.2091 74 83 74H47C44.7909 74 43 72.2091 43 70C43 67.7909 44.7909 66 47 66Z" fill="#D2AB3E"/>
<path d="M47 82H104C106.209 82 108 83.7909 108 86C108 88.2091 106.209 90 104 90H47C44.7909 90 43 88.2091 43 86C43 83.7909 44.7909 82 47 82Z" fill="#E4BD53"/>
</svg>
