<svg width="151" height="150" viewBox="0 0 151 150" fill="none" xmlns="http://www.w3.org/2000/svg">
<path fill-rule="evenodd" clip-rule="evenodd" d="M76.6787 144.481C116.553 143.896 148.678 111.772 148.678 72.2408C148.678 32.3433 115.939 0 75.5535 0C35.1676 0 2.42847 32.3433 2.42847 72.2408C2.42847 93.3129 11.561 112.278 26.1293 125.483C28.456 127.952 26.8208 130.524 25.0126 132.971C23.2794 135.317 21.6884 138.98 22.8787 142.675C24.488 147.671 29.0809 150.166 34.653 149.991C42.4008 149.749 53.485 144.822 76.6787 144.481Z" fill="url(#paint0_linear)"/>
<path opacity="0.6" d="M70.857 97.1803L55.0692 89.0231C53.0931 88.0021 51.8606 86.021 51.8606 83.8658V66.3223C51.8606 63.6858 54.7713 61.9885 57.2065 63.205L72.9642 71.0761C74.9821 72.0841 76.248 74.0871 76.248 76.2717V86.5389V94.0859C76.248 96.7439 73.2941 98.4394 70.857 97.1803Z" fill="white"/>
<path opacity="0.2" d="M73.4073 77.999L55.9425 85.2158C55.4507 85.419 55.422 86.0688 55.8942 86.3101L72.4573 94.7752C72.8863 94.9945 73.4073 94.7006 73.4073 94.2392V77.999Z" fill="#609FFF"/>
<path fill-rule="evenodd" clip-rule="evenodd" d="M84.4416 29.3027C78.942 26.492 72.4199 26.4295 66.8663 29.1344L40.5286 41.9621C39.0025 42.7054 38.3746 44.5315 39.1262 46.0407C39.8778 47.55 41.7243 48.171 43.2504 47.4277L69.5881 34.5999C73.3879 32.7492 77.8504 32.7919 81.6133 34.7151L110.589 49.5238C112.109 50.3008 112.058 52.468 110.502 53.1737L99.965 57.9541C99.4694 56.4762 98.4197 55.1456 96.8051 54.2941L81.4791 46.212C77.5442 44.137 72.8047 44.1275 68.8611 46.1868L61.7991 49.8746C60.3802 50.6155 59.8456 52.3384 60.6049 53.7228C61.3642 55.1073 63.1299 55.6289 64.5487 54.888L71.6108 51.2003C73.829 50.0419 76.495 50.0472 78.7084 51.2144L94.0344 59.2965C94.5231 59.5542 94.5977 60.1631 94.2778 60.5342L77.9336 67.9491C76.3062 68.6874 74.4239 68.6338 72.8421 67.8042L54.6095 58.2409L45.5324 53.5534C39.3802 50.3762 32.0144 54.7901 32.0144 61.654V89.4316C32.0144 95.1511 35.2545 100.389 40.4037 102.993L66.4354 116.157C71.9703 118.956 78.5227 118.978 84.0773 116.218L110.707 102.982C115.909 100.396 119.192 95.1308 119.192 89.3731V66.4244C119.192 64.7421 117.813 63.3782 116.112 63.3782C114.411 63.3782 113.032 64.7421 113.032 66.4244V89.3731C113.032 92.8277 111.062 95.9871 107.941 97.5384L81.3109 110.774C77.5104 112.663 73.0272 112.648 69.2402 110.732L43.2084 97.5682C40.1189 96.0058 38.1749 92.8633 38.1749 89.4316V61.654C38.1749 59.366 40.6301 57.8947 42.6809 58.9538L50.0348 62.7515C49.3975 63.7277 49.0193 65.0824 49.0193 66.375V83.799C49.0193 87.0006 50.8101 89.9434 53.6813 91.4601L67.6219 98.824L69.7672 99.9156C71.8115 100.77 74.1035 101.286 75.7761 101.286C77.6087 101.286 79.8922 100.733 81.8828 99.8245C82.0742 99.7436 82.8391 99.3442 83.0274 99.2432L97.9088 91.2555C100.751 89.73 102.519 86.8028 102.519 83.6222V74.7112C102.519 73.141 101.222 71.8681 99.6234 71.8681C98.0244 71.8681 96.7282 73.141 96.7282 74.7112V83.6222C96.7282 84.7238 96.1159 85.7376 95.1316 86.266L79.6752 94.5623C79.2202 94.8065 78.6648 94.4831 78.6648 93.9739V75.9671C78.6648 75.1753 78.77 74.3885 79.5186 73.9771C80.0508 73.6847 80.1789 73.6333 80.5022 73.4866L113.071 58.7113C119.293 55.8886 119.498 47.2194 113.417 44.1114L84.4416 29.3027ZM54.8097 66.375C54.8097 65.7244 55.1437 65.5098 55.502 65.6495L70.0114 73.0871C70.636 73.4147 71.8892 73.9937 71.8892 73.9937C72.5213 74.2822 72.8731 75.3536 72.8731 76.2049V94.0191C72.8731 94.5263 72.3217 94.8499 71.8668 94.6096L56.4245 86.4524C55.43 85.9271 54.8097 84.9079 54.8097 83.799V66.375Z" fill="white"/>
<defs>
<linearGradient id="paint0_linear" x1="130.001" y1="141.121" x2="54.5773" y2="59.6507" gradientUnits="userSpaceOnUse">
<stop stop-color="#3888FF"/>
<stop offset="1" stop-color="#1D72D8"/>
</linearGradient>
</defs>
</svg>
