<svg width="150" height="150" viewBox="0 0 150 150" fill="none" xmlns="http://www.w3.org/2000/svg">
<path fill-rule="evenodd" clip-rule="evenodd" d="M75.7604 144.481C115.369 143.896 147.28 111.772 147.28 72.2408C147.28 32.3433 114.759 0 74.6427 0C34.5261 0 2.00519 32.3433 2.00519 72.2408C2.00519 93.3129 11.0769 112.278 25.548 125.483C27.8592 127.952 26.2349 130.524 24.4388 132.971C22.7171 135.318 21.1367 138.98 22.3191 142.675C23.9177 147.671 28.4799 150.166 34.0149 149.992C41.7111 149.749 52.7214 144.822 75.7604 144.481Z" fill="url(#paint0_linear)"/>
<path opacity="0.6" d="M69.9775 97.1803L54.295 89.0231C52.3321 88.0021 51.1078 86.021 51.1078 83.8658V66.3223C51.1078 63.6858 53.9991 61.9885 56.4181 63.205L72.0707 71.0761C74.0751 72.0841 75.3327 74.0871 75.3327 76.2717V86.5389V94.0859C75.3327 96.7439 72.3984 98.4394 69.9775 97.1803Z" fill="white"/>
<path opacity="0.2" d="M72.5109 77.999L55.1625 85.2158C54.674 85.419 54.6455 86.0688 55.1145 86.3101L71.5671 94.7752C71.9933 94.9945 72.5109 94.7006 72.5109 94.2392V77.999Z" fill="#609FFF"/>
<path fill-rule="evenodd" clip-rule="evenodd" d="M83.4715 29.3027C78.0086 26.492 71.53 26.4295 66.0135 29.1344L39.8513 41.9621C38.3354 42.7054 37.7117 44.5315 38.4583 46.0408C39.2049 47.55 41.039 48.171 42.555 47.4277L68.7171 34.5999C72.4916 32.7492 76.9243 32.7919 80.6621 34.7151L109.444 49.5238C110.954 50.3008 110.903 52.4681 109.358 53.1737L98.8915 57.9541C98.3991 56.4762 97.3565 55.1456 95.7526 54.2941L80.5288 46.212C76.6202 44.137 71.9122 44.1275 67.9949 46.1868L60.98 49.8746C59.5706 50.6155 59.0395 52.3384 59.7938 53.7228C60.548 55.1073 62.302 55.6289 63.7113 54.888L70.7263 51.2003C72.9297 50.0419 75.578 50.0472 77.7766 51.2144L93.0004 59.2965C93.4858 59.5542 93.56 60.1631 93.2422 60.5342L77.0069 67.9491C75.3904 68.6874 73.5206 68.6338 71.9494 67.8042L53.8383 58.2409L44.8218 53.5534C38.7105 50.3762 31.3939 54.7901 31.3939 61.654V89.4316C31.3939 95.1512 34.6123 100.389 39.7272 102.993L65.5854 116.157C71.0834 118.956 77.5922 118.978 83.1096 116.218L109.562 102.982C114.729 100.396 117.99 95.1309 117.99 89.3731V66.4244C117.99 64.7421 116.621 63.3782 114.931 63.3782C113.241 63.3782 111.871 64.7421 111.871 66.4244V89.3731C111.871 92.8277 109.914 95.9871 106.814 97.5385L80.3617 110.774C76.5866 112.663 72.1332 112.648 68.3714 110.732L42.5133 97.5682C39.4443 96.0058 37.5132 92.8634 37.5132 89.4316V61.654C37.5132 59.366 39.9521 57.8947 41.9892 58.9538L49.2941 62.7515C48.6611 63.7277 48.2854 65.0824 48.2854 66.375V83.799C48.2854 87.0006 50.0642 89.9434 52.9163 91.4601L66.7639 98.824L68.895 99.9156C70.9256 100.77 73.2024 101.286 74.8639 101.286C76.6842 101.286 78.9525 100.733 80.9298 99.8245C81.1199 99.7436 81.8798 99.3443 82.0667 99.2432L96.849 91.2555C99.6722 89.73 101.428 86.8029 101.428 83.6222V74.7112C101.428 73.141 100.141 71.8681 98.5522 71.8681C96.9638 71.8681 95.6762 73.141 95.6762 74.7112V83.6222C95.6762 84.7238 95.0681 85.7376 94.0902 86.266L78.7369 94.5623C78.2849 94.8065 77.7333 94.4832 77.7333 93.9739V75.9671C77.7333 75.1753 77.8377 74.3885 78.5814 73.9771C79.11 73.6847 79.2372 73.6334 79.5585 73.4867L111.91 58.7113C118.09 55.8886 118.294 47.2194 112.254 44.1114L83.4715 29.3027ZM54.0372 66.375C54.0372 65.7244 54.3689 65.5098 54.7249 65.6495L69.1376 73.0871C69.758 73.4147 71.0028 73.9937 71.0028 73.9937C71.6307 74.2822 71.9802 75.3536 71.9802 76.2049V94.0191C71.9802 94.5264 71.4324 94.8499 70.9805 94.6096L55.6412 86.4524C54.6533 85.9271 54.0372 84.9079 54.0372 83.799V66.375Z" fill="white"/>
<defs>
<linearGradient id="paint0_linear" x1="128.727" y1="141.121" x2="53.2664" y2="60.154" gradientUnits="userSpaceOnUse">
<stop stop-color="#3888FF"/>
<stop offset="1" stop-color="#1D72D8"/>
</linearGradient>
</defs>
</svg>
