<svg width="150" height="150" viewBox="0 0 150 150" fill="none" xmlns="http://www.w3.org/2000/svg">
<g clip-path="url(#clip0)">
<path d="M15.6858 51.5248C15.6858 48.4133 17.406 45.5568 20.1562 44.1014L36.1733 35.6251V91.8751H24.0847C19.4461 91.8751 15.6858 88.1148 15.6858 83.4763V51.5248Z" fill="#2D61D2"/>
<path d="M0.785645 87.288C0.785645 82.1372 3.73952 77.4428 8.38307 75.214L36.1731 61.8749V150H14.1785C6.78183 150 0.785645 144.004 0.785645 136.607V87.288Z" fill="#5989EF"/>
<path d="M114.398 46.7213H136.393C143.789 46.7213 149.785 52.7175 149.785 60.1142V136.607C149.785 144.004 143.789 150 136.393 150H114.398V46.7213Z" fill="#6391F3"/>
<rect x="56.6606" y="105" width="37.25" height="45" fill="#2A56B6"/>
<path d="M105.272 -0.00409007L48.8385 -0.00408944C45.6723 -0.504089 42.444 0.37091 40.0227 2.43341C37.6015 4.55841 36.1735 7.62091 36.1735 10.8084L36.1733 149.996H56.6608V118.389C56.6608 110.992 62.657 104.996 70.0537 104.996H80.518C87.9147 104.996 93.9108 110.992 93.9108 118.389V149.996H114.399V10.8084C114.399 5.43341 110.549 0.87091 105.272 -0.00409007Z" fill="#3D73E9"/>
<rect x="51.073" y="18.75" width="18.625" height="18.75" rx="6.69643" fill="#A2BCF4"/>
<rect x="51.073" y="45.0001" width="18.625" height="18.75" rx="6.69643" fill="#A2BCF4"/>
<rect x="51.073" y="71.2499" width="18.625" height="18.75" rx="6.69643" fill="#A2BCF4"/>
<rect x="79.0105" y="18.75" width="18.625" height="18.75" rx="6.69643" fill="#A2BCF4"/>
<rect x="127.436" y="86.2499" width="9.31249" height="18.75" rx="4.65625" fill="#A2BCF4"/>
<rect x="13.823" y="86.2499" width="9.3125" height="18.75" rx="4.65625" fill="#A2BCF4"/>
<rect x="13.823" y="114.375" width="9.3125" height="18.75" rx="4.65625" fill="#A2BCF4"/>
<rect x="127.436" y="58.1249" width="9.31249" height="18.75" rx="4.65625" fill="#A2BCF4"/>
<rect x="127.436" y="114.375" width="9.31249" height="18.75" rx="4.65625" fill="#A2BCF4"/>
<rect x="79.0105" y="45.0001" width="18.625" height="18.75" rx="6.69643" fill="#A2BCF4"/>
<rect x="79.0105" y="71.2499" width="18.625" height="18.75" rx="6.69643" fill="#A2BCF4"/>
</g>
<defs>
<clipPath id="clip0">
<rect width="149" height="150" fill="white" transform="translate(0.785645)"/>
</clipPath>
</defs>
</svg>
