<svg width="151" height="150" viewBox="0 0 151 150" fill="none" xmlns="http://www.w3.org/2000/svg">
<g clip-path="url(#clip0)">
<path d="M15.1967 51.5406C15.1967 48.4208 16.926 45.558 19.6875 44.1064L35.8216 35.6251V91.8751H23.5955C18.957 91.8751 15.1967 88.1148 15.1967 83.4763V51.5406Z" fill="#2D61D2"/>
<path d="M0.196411 87.3123C0.196411 82.149 3.16459 77.4455 7.8253 75.2233L35.8214 61.8749V150H13.5893C6.1926 150 0.196411 144.004 0.196411 136.607V87.3123Z" fill="#5989EF"/>
<path d="M114.571 46.7213H136.803C144.2 46.7213 150.196 52.7175 150.196 60.1142V136.607C150.196 144.004 144.2 150 136.803 150H114.571V46.7213Z" fill="#6391F3"/>
<rect x="56.4464" y="105" width="37.5" height="45" fill="#2A56B6"/>
<path d="M105.384 -0.00409007L48.5717 -0.00408945C45.3842 -0.504089 42.1342 0.37091 39.6967 2.43341C37.2592 4.55841 35.8217 7.62091 35.8217 10.8084L35.8215 149.996H56.4465V118.389C56.4465 110.992 62.4427 104.996 69.8394 104.996H80.5537C87.9503 104.996 93.9465 110.992 93.9465 118.389V149.996H114.572V10.8084C114.572 5.43341 110.697 0.87091 105.384 -0.00409007Z" fill="#3D73E9"/>
<rect x="50.8212" y="18.75" width="18.75" height="18.75" rx="6.69643" fill="#A2BCF4"/>
<rect x="50.8212" y="45.0001" width="18.75" height="18.75" rx="6.69643" fill="#A2BCF4"/>
<rect x="50.8212" y="71.2499" width="18.75" height="18.75" rx="6.69643" fill="#A2BCF4"/>
<rect x="78.9462" y="18.75" width="18.75" height="18.75" rx="6.69643" fill="#A2BCF4"/>
<rect x="127.697" y="86.2499" width="9.375" height="18.75" rx="4.6875" fill="#A2BCF4"/>
<rect x="13.3212" y="86.2499" width="9.375" height="18.75" rx="4.6875" fill="#A2BCF4"/>
<rect x="13.3212" y="114.375" width="9.375" height="18.75" rx="4.6875" fill="#A2BCF4"/>
<rect x="127.697" y="58.1249" width="9.375" height="18.75" rx="4.6875" fill="#A2BCF4"/>
<rect x="127.697" y="114.375" width="9.375" height="18.75" rx="4.6875" fill="#A2BCF4"/>
<rect x="78.9462" y="45.0001" width="18.75" height="18.75" rx="6.69643" fill="#A2BCF4"/>
<rect x="78.9462" y="71.2499" width="18.75" height="18.75" rx="6.69643" fill="#A2BCF4"/>
</g>
<defs>
<clipPath id="clip0">
<rect width="150" height="150" fill="white" transform="translate(0.196411)"/>
</clipPath>
</defs>
</svg>
