<svg width="28" height="28" viewBox="0 0 28 28" fill="none" xmlns="http://www.w3.org/2000/svg">
<g clip-path="url(#clip0)">
<path d="M2.79999 9.62105C2.79999 9.03867 3.1228 8.50429 3.63829 8.23331L6.64999 6.65015V17.1501H4.36778C3.50191 17.1501 2.79999 16.4482 2.79999 15.5824V9.62105Z" fill="#2D61D2"/>
<path d="M0 16.2984C0 15.3345 0.55406 14.4565 1.42406 14.0417L6.65 11.55V28.0001H2.5C1.11929 28.0001 0 26.8808 0 25.5V16.2984Z" fill="#5989EF"/>
<path d="M21.35 8.72144H25.5C26.8807 8.72144 28 9.84072 28 11.2214V25.5001C28 26.8808 26.8807 28.0001 25.5 28.0001H21.35V8.72144Z" fill="#6391F3"/>
<rect x="10.5" y="19.5999" width="7" height="8.4" fill="#2A56B6"/>
<path d="M19.635 -0.000698374L9.03 -0.000698256C8.435 -0.0940316 7.82833 0.0693017 7.37333 0.454302C6.91833 0.850968 6.65 1.42263 6.65 2.01764L6.64996 27.9993H10.5V22.0993C10.5 20.7186 11.6193 19.5993 13 19.5993H15C16.3807 19.5993 17.5 20.7186 17.5 22.0993V27.9993H21.35V2.01764C21.35 1.0143 20.6267 0.162635 19.635 -0.000698374Z" fill="#3D73E9"/>
<rect x="9.45001" y="3.5" width="3.5" height="3.5" rx="1.25" fill="#A2BCF4"/>
<rect x="9.45001" y="8.40015" width="3.5" height="3.5" rx="1.25" fill="#A2BCF4"/>
<rect x="9.45001" y="13.3" width="3.5" height="3.5" rx="1.25" fill="#A2BCF4"/>
<rect x="14.7" y="3.5" width="3.5" height="3.5" rx="1.25" fill="#A2BCF4"/>
<rect x="23.8" y="16.0999" width="1.75" height="3.5" rx="0.875" fill="#A2BCF4"/>
<rect x="2.45001" y="16.0999" width="1.75" height="3.5" rx="0.875" fill="#A2BCF4"/>
<rect x="2.45001" y="21.3499" width="1.75" height="3.5" rx="0.875" fill="#A2BCF4"/>
<rect x="23.8" y="10.8499" width="1.75" height="3.5" rx="0.875" fill="#A2BCF4"/>
<rect x="23.8" y="21.3499" width="1.75" height="3.5" rx="0.875" fill="#A2BCF4"/>
<rect x="14.7" y="8.40015" width="3.5" height="3.5" rx="1.25" fill="#A2BCF4"/>
<rect x="14.7" y="13.3" width="3.5" height="3.5" rx="1.25" fill="#A2BCF4"/>
</g>
<defs>
<clipPath id="clip0">
<rect width="28" height="28" fill="white"/>
</clipPath>
</defs>
</svg>
