<svg width="150" height="150" viewBox="0 0 150 150" fill="none" xmlns="http://www.w3.org/2000/svg">
<path fill-rule="evenodd" clip-rule="evenodd" d="M84.685 20.0052C99.718 22.5845 112.994 31.2442 121.602 44.086C134.129 62.7732 134.133 87.2837 121.612 106.043C117.614 112.034 112.186 117.489 106.304 121.43C89.483 132.698 67.7255 134.073 49.9234 124.992C48.1489 124.087 46.1597 123.027 45.5031 122.636L44.3087 121.926L37.4477 123.259C33.674 123.992 30.5379 124.544 30.4785 124.484C30.4191 124.425 30.8911 121.531 31.5273 118.053L32.684 111.731L31.159 109.861C27.5467 105.433 24.1133 99.1735 22.0454 93.2453L21.0679 90.4437L21.9385 90.7671C22.4173 90.945 27.2259 92.9322 32.6242 95.1829L42.4393 99.2755L42.8209 100.567C44.7797 107.193 51.294 112.027 58.2665 112.027C66.3839 112.027 73.9244 104.734 73.967 96.8411L73.9748 95.3753L83.4935 88.6095L93.0123 81.8436L95.5182 81.6345C103.765 80.9456 110.958 75.2196 113.706 67.1557C114.688 64.2746 114.93 58.762 114.201 55.8512C112.418 48.729 106.903 42.745 100.031 40.4763C97.7534 39.7245 96.8315 39.5992 93.5049 39.5895C89.9937 39.5792 89.3706 39.6703 86.8492 40.5628C78.7007 43.4465 73.2643 50.3121 72.3943 58.8178L72.1522 61.1837L65.6569 70.552L59.1616 79.9203L56.3189 80.3071C54.301 80.5818 52.8377 81.0108 51.276 81.7852L49.076 82.8766L34.1147 76.7109L19.1533 70.5452L19.3192 68.9312C19.9419 62.8743 21.8992 56.3364 24.9242 50.2081C30.3701 39.1767 39.0527 30.4753 50.0703 25.0078C56.5917 21.7713 61.8807 20.298 70.7467 19.2473C73.1752 18.9593 81.1031 19.3906 84.685 20.0052ZM97.7408 47.3215C99.7823 47.889 103.01 50.0054 104.264 51.5985C108.816 57.3849 108.561 65.0239 103.641 70.2263C98.0714 76.1157 88.6017 76.0059 83.163 69.9887C76.9815 63.1499 79.0533 52.1582 87.2811 48.1376C90.628 46.5022 93.881 46.2485 97.7408 47.3215ZM90.2432 50.5044C87.2204 51.4506 84.5188 54.1668 83.4341 57.3497C82.732 59.4108 82.989 63.2991 83.9513 65.1701C85.8271 68.8179 89.4652 71.1379 93.3435 71.1602C96.5777 71.1786 98.6214 70.3283 100.958 67.9915C103.303 65.6472 104.143 63.6171 104.131 60.3341C104.104 53.4475 96.9709 48.3987 90.2432 50.5044ZM63.1574 85.4068C65.5626 86.5451 67.6499 88.623 68.7549 90.9805C69.509 92.5891 69.6168 93.2234 69.6168 96.0473C69.6168 98.8713 69.509 99.5056 68.7549 101.114C67.6538 103.464 65.5746 105.538 63.1406 106.717C61.45 107.536 60.8619 107.647 58.157 107.657C55.4964 107.667 54.8476 107.555 53.2584 106.81C52.2509 106.337 50.7982 105.37 50.0302 104.659C48.5133 103.256 47.0672 101.125 47.8577 101.457C54.8356 104.394 55.7995 104.713 57.7073 104.718C65.3422 104.737 69.2608 95.6884 64.0448 90.0824C62.7145 88.6527 61.9681 88.2111 58.32 86.6945C56.0129 85.7355 54.3424 84.8807 54.6077 84.7948C54.8731 84.7089 55.3082 84.5566 55.5745 84.4558C55.8408 84.3554 57.2283 84.3261 58.658 84.3906C60.6637 84.4813 61.6912 84.7134 63.1574 85.4068Z" fill="url(#paint0_linear_1734:22890)"/>
<defs>
<linearGradient id="paint0_linear_1734:22890" x1="75.0766" y1="19.1559" x2="75.0766" y2="130.954" gradientUnits="userSpaceOnUse">
<stop stop-color="#15305F"/>
<stop offset="0.474832" stop-color="#183D6D"/>
<stop offset="1" stop-color="#037EA7"/>
</linearGradient>
</defs>
</svg>
