<?xml version="1.0" standalone="no"?>
<!DOCTYPE svg PUBLIC "-//W3C//DTD SVG 20010904//EN"
 "http://www.w3.org/TR/2001/REC-SVG-20010904/DTD/svg10.dtd">
<svg version="1.0" xmlns="http://www.w3.org/2000/svg"
 width="3334.000000pt" height="3334.000000pt" viewBox="0 0 3334.000000 3334.000000"
 preserveAspectRatio="xMidYMid meet">

<g transform="translate(0.000000,3334.000000) scale(0.100000,-0.100000)"
fill="#000000" stroke="none">
<path d="M3370 19941 c-83 -26 -159 -90 -201 -171 l-24 -45 0 -2690 0 -2690
24 -49 c29 -60 85 -117 143 -148 l43 -23 2285 0 2285 0 43 23 c58 31 114 88
143 148 l24 49 3 1763 2 1762 -915 0 c-902 0 -915 0 -970 21 -74 28 -146 100
-174 174 -21 55 -21 68 -21 970 l0 915 -1332 -1 c-733 0 -1344 -4 -1358 -8z
m3486 -2525 l34 -34 0 -142 0 -142 -34 -34 -34 -34 -1182 0 -1182 0 -34 34
-34 34 0 142 0 142 34 34 34 34 1182 0 1182 0 34 -34z m-17 -820 c43 -23 51
-54 51 -197 l0 -131 -34 -34 -34 -34 -1182 0 -1182 0 -34 34 -34 34 0 134 c1
142 8 170 51 194 37 21 2358 20 2398 0z m-6 -827 c47 -21 57 -56 57 -194 0
-131 -6 -157 -44 -187 -20 -16 -98 -18 -1206 -18 -1108 0 -1186 2 -1206 18
-38 30 -44 56 -44 189 1 137 8 165 51 189 32 18 2354 21 2392 3z"/>
<path d="M6472 19053 l3 -768 768 -3 768 -2 -18 32 c-23 43 -1448 1468 -1491
1491 l-32 18 2 -768z"/>
<path d="M19600 17010 l0 -2060 330 0 330 0 0 366 0 366 221 254 222 255 31
-53 c18 -29 180 -303 361 -608 180 -305 333 -561 339 -568 9 -9 92 -12 373
-10 l361 3 -529 830 c-292 457 -534 838 -539 847 -8 13 82 126 481 600 l490
583 -363 3 -362 2 -27 -27 c-15 -16 -255 -311 -534 -658 -278 -346 -511 -631
-516 -633 -5 -2 -9 489 -9 1282 l0 1286 -330 0 -330 0 0 -2060z"/>
<path d="M10090 16855 l0 -1905 335 0 335 0 0 845 0 845 770 0 770 0 0 -845 0
-845 340 0 340 0 0 1905 0 1905 -340 0 -340 0 0 -765 0 -765 -770 0 -770 0 0
765 0 765 -335 0 -335 0 0 -1905z"/>
<path d="M22700 16855 l0 -1905 301 0 300 0 -4 1083 c-3 723 -8 1120 -16 1197
-31 312 -61 673 -56 678 3 3 9 1 14 -4 4 -5 72 -198 150 -429 79 -231 287
-813 464 -1292 l320 -873 203 0 202 0 10 28 c5 15 154 421 330 902 176 481
382 1054 457 1273 76 218 142 397 146 397 13 0 12 -21 -21 -379 -48 -531 -50
-603 -50 -1618 l0 -963 310 0 310 0 0 1905 0 1905 -384 0 -384 0 -10 -27
c-289 -806 -712 -2021 -780 -2239 -105 -335 -108 -344 -121 -344 -6 0 -53 134
-106 298 -111 344 -142 432 -531 1509 l-289 803 -382 0 -383 0 0 -1905z"/>
<path d="M27040 16856 l0 -1906 588 0 c623 0 741 6 942 46 349 70 616 207 841
433 261 262 409 584 476 1036 26 173 25 650 -1 820 -66 431 -214 753 -461
1001 -233 233 -524 373 -930 446 -114 21 -156 22 -787 25 l-668 4 0 -1905z
m1245 1340 c179 -31 354 -96 469 -175 213 -147 357 -388 421 -704 48 -241 55
-518 19 -780 -68 -494 -298 -817 -682 -957 -161 -59 -252 -72 -539 -77 l-263
-5 0 1354 c0 745 3 1358 8 1363 12 13 469 -2 567 -19z"/>
<path d="M14882 17879 c-295 -23 -620 -128 -919 -298 -62 -36 -113 -68 -113
-73 0 -5 55 -108 121 -229 l121 -220 25 16 c98 65 322 172 438 210 160 52 361
70 487 44 167 -35 290 -152 341 -327 17 -55 41 -211 34 -218 -2 -2 -73 -13
-158 -23 -775 -100 -1231 -300 -1422 -622 -74 -125 -116 -323 -102 -484 31
-383 246 -650 600 -747 119 -32 363 -32 490 1 187 48 378 147 557 287 51 40
96 70 100 66 4 -4 17 -66 28 -137 11 -72 23 -140 25 -152 l5 -23 275 0 275 0
0 903 c0 546 -4 945 -10 1012 -49 519 -267 835 -663 965 -133 44 -350 64 -535
49z m538 -1838 l0 -320 -66 -58 c-123 -109 -250 -186 -374 -229 -44 -15 -83
-19 -190 -19 -170 1 -226 19 -311 104 -72 73 -94 131 -93 256 0 80 3 97 32
159 87 186 337 314 762 389 180 32 190 34 218 36 l22 1 0 -319z"/>
<path d="M18020 17880 c-443 -34 -832 -259 -1065 -615 -157 -240 -231 -491
-242 -820 -13 -403 67 -718 254 -999 190 -285 478 -470 848 -543 135 -26 426
-24 557 5 136 30 237 65 353 122 96 48 270 164 289 193 7 10 -29 76 -124 231
-74 119 -136 216 -140 216 -3 0 -30 -19 -60 -41 -218 -164 -464 -231 -680
-185 -223 47 -415 212 -516 444 -63 146 -94 306 -94 487 0 568 311 956 770
959 155 0 265 -38 403 -142 35 -27 69 -52 75 -56 15 -9 336 419 327 434 -11
18 -143 113 -220 158 -200 118 -465 173 -735 152z"/>
</g>
</svg>
