<svg width="28" height="28" viewBox="0 0 28 28" fill="none" xmlns="http://www.w3.org/2000/svg">
<g clip-path="url(#clip0)">
<path d="M28 24.138H6.10352e-05V5.58803C6.10352e-05 4.94639 0.52506 4.42139 1.16671 4.42139H26.8333C27.4749 4.42139 27.9999 4.94639 27.9999 5.58803L28 24.138Z" fill="#A33131"/>
<path d="M25.8992 11.3049H2.44922V1.98468C2.44922 1.33583 2.98488 0.804932 3.63955 0.804932H24.7088C25.3635 0.804932 25.8992 1.33583 25.8992 1.98468V11.3049V11.3049Z" fill="#F2F2F2"/>
<path d="M16.6042 1.19032L15.582 3.34163L15.8414 3.87564L18.5877 3.87564L18.8776 3.34163L17.8554 1.19032C17.6875 1.32764 17.4739 1.41918 17.2298 1.41918C16.9857 1.41918 16.7721 1.32764 16.6042 1.19032Z" fill="#EBE5D5"/>
<path d="M16.984 0.380543L16.6026 1.18919C16.7704 1.32651 16.984 1.41805 17.2281 1.41805C17.4723 1.41805 17.6859 1.32651 17.8537 1.18919L17.4723 0.380543C17.3502 0.136418 17.1061 0.136417 16.984 0.380543Z" fill="#325667"/>
<path d="M15.5974 12.423C15.5974 12.6976 15.8262 12.9265 16.1009 12.9265L18.359 12.9265C18.6336 12.9265 18.8625 12.6976 18.8625 12.423L18.8625 11.2939L15.5974 11.2939L15.5974 12.423Z" fill="#E14A4A"/>
<path d="M15.588 10.8494L15.588 11.3025L18.8677 11.3025L18.8677 10.8494L15.588 10.8494Z" fill="#F3B74B"/>
<path d="M18.3889 3.52473C18.1752 3.52473 17.992 3.43315 17.8699 3.28051C17.7631 3.53998 17.5189 3.72314 17.2136 3.72314C16.9083 3.72314 16.6641 3.53998 16.5573 3.28051C16.4352 3.43315 16.252 3.52473 16.0383 3.52473C15.8552 3.52473 15.6873 3.44842 15.5652 3.3263L15.5652 10.8358L18.862 10.8358L18.8773 3.34157C18.7399 3.44842 18.572 3.52473 18.3889 3.52473Z" fill="#FFD15C"/>
<path d="M10.1501 2.90503H5.95012C5.56352 2.90503 5.25012 3.21843 5.25012 3.60503C5.25012 3.99163 5.56352 4.30503 5.95012 4.30503H10.1501C10.5367 4.30503 10.8501 3.99163 10.8501 3.60503C10.8501 3.21843 10.5367 2.90503 10.1501 2.90503Z" fill="#DCDEE1"/>
<path d="M13.6501 5.35485H5.95012C5.56352 5.35485 5.25012 5.66825 5.25012 6.05485C5.25012 6.44145 5.56352 6.75485 5.95012 6.75485H13.6501C14.0367 6.75485 14.3501 6.44145 14.3501 6.05485C14.3501 5.66825 14.0367 5.35485 13.6501 5.35485Z" fill="#DCDEE1"/>
<path d="M13.6501 7.80485H5.95012C5.56352 7.80485 5.25012 8.11825 5.25012 8.50485C5.25012 8.89145 5.56352 9.20485 5.95012 9.20485H13.6501C14.0367 9.20485 14.3501 8.89145 14.3501 8.50485C14.3501 8.11825 14.0367 7.80485 13.6501 7.80485Z" fill="#DCDEE1"/>
<path d="M20.8686 0.12333L23.616 0.123329C23.7991 0.123329 23.9518 0.275966 23.9518 0.459125L23.9365 11.0976C23.9365 11.2808 23.7839 11.4334 23.6007 11.4334L20.8533 11.4334C20.6702 11.4334 20.5175 11.2808 20.5175 11.0976L20.5175 0.474394C20.5023 0.275967 20.6702 0.108076 20.8686 0.12333Z" fill="#A4B2B9"/>
<path d="M23.5848 0.737549L22.0959 0.737549L22.0959 0.543354L23.5848 0.543354L23.5848 0.737549Z" fill="white"/>
<path d="M23.5928 1.47046L22.816 1.47046L22.816 1.27626L23.5928 1.27626L23.5928 1.47046Z" fill="white"/>
<path d="M23.5928 2.18823L22.816 2.18823L22.816 1.99404L23.5928 1.99404L23.5928 2.18823Z" fill="white"/>
<path d="M23.5948 2.93603L22.8181 2.93604L22.8181 2.74184L23.5948 2.74184L23.5948 2.93603Z" fill="white"/>
<path d="M23.5896 3.69067L22.1008 3.69067L22.1008 3.49648L23.5896 3.49648L23.5896 3.69067Z" fill="white"/>
<path d="M23.597 4.40356H22.8202V4.20937H23.597V4.40356Z" fill="white"/>
<path d="M23.597 5.09448H22.8202V4.90029H23.597V5.09448Z" fill="white"/>
<path d="M23.5774 5.87012H22.8006V5.67592H23.5774V5.87012Z" fill="white"/>
<path d="M23.5935 6.62451L22.1047 6.62451L22.1047 6.43032L23.5935 6.43032L23.5935 6.62451Z" fill="white"/>
<path d="M23.5808 7.33521L22.804 7.33521L22.804 7.14101L23.5808 7.14101L23.5808 7.33521Z" fill="white"/>
<path d="M23.5959 8.09106L22.1071 8.09106L22.1071 7.89687L23.5959 7.89687L23.5959 8.09106Z" fill="white"/>
<path d="M23.5833 8.80249H22.8065V8.60829H23.5833V8.80249Z" fill="white"/>
<path d="M23.5989 9.55762L22.1101 9.55762L22.1101 9.36342L23.5989 9.36342L23.5989 9.55762Z" fill="white"/>
<path d="M23.5852 10.269L22.8084 10.269L22.8084 10.0748L23.5852 10.0748L23.5852 10.269Z" fill="white"/>
<path d="M23.5794 11.0239L22.0906 11.0239L22.0906 10.8297L23.5794 10.8297L23.5794 11.0239Z" fill="white"/>
<path d="M0 11.0315V26.7966C0 27.4585 0.525 28 1.16665 28H26.8334C27.475 28 28 27.4585 28 26.7966V8.20342C28 7.54155 27.475 7 26.8334 7H20.7083C20.0666 7 19.5416 7.54155 19.5416 8.20342V8.62464C19.5416 9.28652 19.0166 9.82807 18.375 9.82807H1.1667C0.525001 9.82807 0 10.3696 0 11.0315Z" fill="#CF4848"/>
</g>
<defs>
<clipPath id="clip0">
<rect width="28" height="28" fill="white"/>
</clipPath>
</defs>
</svg>
