<svg width="150" height="150" viewBox="0 0 150 150" fill="none" xmlns="http://www.w3.org/2000/svg">
<g clip-path="url(#clip0)">
<path d="M149.929 129.311H0.928955V29.9359C0.928955 26.4985 3.7227 23.686 7.13718 23.686H143.72C147.135 23.686 149.928 26.4985 149.928 29.9359L149.929 129.311Z" fill="#A33131"/>
<path d="M138.749 60.5627H13.9622V10.6329C13.9622 7.1569 16.8126 4.31281 20.2964 4.31281H132.415C135.899 4.31281 138.749 7.1569 138.749 10.6329V60.5627V60.5627Z" fill="#F2F2F2"/>
<path d="M89.2871 6.37669L83.8473 17.9016L85.2275 20.7624L99.8421 20.7624L101.385 17.9016L95.9448 6.37669C95.0518 7.11232 93.9151 7.60275 92.616 7.60275C91.317 7.60275 90.1803 7.11232 89.2871 6.37669Z" fill="#EBE5D5"/>
<path d="M91.3081 2.03864L89.2783 6.37067C90.1714 7.10631 91.308 7.59673 92.6072 7.59673C93.9064 7.59673 95.0429 7.10631 95.9361 6.37068L93.9063 2.03864C93.2566 0.730826 91.9576 0.730824 91.3081 2.03864Z" fill="#325667"/>
<path d="M83.9292 66.5526C83.9292 68.0238 85.147 69.2499 86.6085 69.2499L98.6249 69.25C100.086 69.25 101.304 68.0239 101.304 66.5526L101.304 60.5041L83.9292 60.5041L83.9292 66.5526Z" fill="#E14A4A"/>
<path d="M83.8794 58.1219L83.8794 60.5494L101.332 60.5494L101.332 58.1219L83.8794 58.1219Z" fill="#F3B74B"/>
<path d="M98.7838 18.8834C97.6467 18.8834 96.672 18.3928 96.0222 17.5751C95.4537 18.9652 94.1542 19.9464 92.5297 19.9464C90.9052 19.9464 89.6057 18.9652 89.0371 17.5751C88.3873 18.3928 87.4127 18.8834 86.2755 18.8834C85.3009 18.8834 84.4074 18.4746 83.7576 17.8204L83.7576 58.0499L101.302 58.0499L101.383 17.9022C100.652 18.4746 99.7585 18.8834 98.7838 18.8834Z" fill="#FFD15C"/>
<path d="M54.9419 15.562H32.5919C30.5347 15.562 28.8669 17.2409 28.8669 19.312C28.8669 21.3831 30.5347 23.062 32.5919 23.062H54.9419C56.9991 23.062 58.6669 21.3831 58.6669 19.312C58.6669 17.2409 56.9991 15.562 54.9419 15.562Z" fill="#DCDEE1"/>
<path d="M73.5668 28.6861H32.5919C30.5347 28.6861 28.8669 30.365 28.8669 32.4361C28.8669 34.5071 30.5347 36.1861 32.5919 36.1861H73.5668C75.6241 36.1861 77.2918 34.5071 77.2918 32.4361C77.2918 30.365 75.6241 28.6861 73.5668 28.6861Z" fill="#DCDEE1"/>
<path d="M73.5668 41.811H32.5919C30.5347 41.811 28.8669 43.49 28.8669 45.561C28.8669 47.6321 30.5347 49.311 32.5919 49.311H73.5668C75.6241 49.311 77.2918 47.6321 77.2918 45.561C77.2918 43.49 75.6241 41.811 73.5668 41.811Z" fill="#DCDEE1"/>
<path d="M111.979 0.660338L126.599 0.660336C127.574 0.660335 128.386 1.47803 128.386 2.45924L128.305 59.4511C128.305 60.4323 127.493 61.25 126.518 61.25L111.898 61.25C110.923 61.25 110.111 60.4323 110.111 59.4511L110.111 2.54104C110.03 1.47804 110.924 0.578622 111.979 0.660338Z" fill="#A4B2B9"/>
<path d="M126.433 3.95178L118.511 3.95178L118.511 2.91145L126.433 2.91145L126.433 3.95178Z" fill="white"/>
<path d="M126.476 7.87744L122.342 7.87744L122.342 6.83711L126.476 6.83711L126.476 7.87744Z" fill="white"/>
<path d="M126.476 11.7227L122.342 11.7227L122.342 10.6823L126.476 10.6823L126.476 11.7227Z" fill="white"/>
<path d="M126.487 15.7285L122.353 15.7285L122.353 14.6881L126.487 14.6881L126.487 15.7285Z" fill="white"/>
<path d="M126.459 19.7718L118.536 19.7718L118.536 18.7315L126.459 18.7315L126.459 19.7718Z" fill="white"/>
<path d="M126.498 23.5898H122.365V22.5495H126.498V23.5898Z" fill="white"/>
<path d="M126.498 27.2919H122.365V26.2515H126.498V27.2919Z" fill="white"/>
<path d="M126.394 31.4467H122.26V30.4064H126.394V31.4467Z" fill="white"/>
<path d="M126.48 35.4882L118.557 35.4882L118.557 34.4478L126.48 34.4478L126.48 35.4882Z" fill="white"/>
<path d="M126.412 39.2961L122.279 39.2961L122.279 38.2558L126.412 38.2558L126.412 39.2961Z" fill="white"/>
<path d="M126.493 43.345L118.57 43.345L118.57 42.3046L126.493 42.3046L126.493 43.345Z" fill="white"/>
<path d="M126.426 47.1555H122.292V46.1152H126.426V47.1555Z" fill="white"/>
<path d="M126.509 51.2015L118.586 51.2015L118.586 50.1612L126.509 50.1612L126.509 51.2015Z" fill="white"/>
<path d="M126.436 55.0124L122.302 55.0124L122.302 53.9721L126.436 53.9721L126.436 55.0124Z" fill="white"/>
<path d="M126.405 59.0564L118.482 59.0564L118.482 58.0161L126.405 58.0161L126.405 59.0564Z" fill="white"/>
<path d="M0.928711 59.0973V143.553C0.928711 147.099 3.72246 150 7.13695 150H143.72C147.135 150 149.929 147.099 149.929 143.553V43.9469C149.929 40.4012 147.135 37.5 143.72 37.5H111.126C107.712 37.5 104.918 40.4012 104.918 43.9469V46.2035C104.918 49.7492 102.124 52.6504 98.71 52.6504H7.13724C3.72247 52.6504 0.928711 55.5515 0.928711 59.0973Z" fill="#CF4848"/>
</g>
<defs>
<clipPath id="clip0">
<rect width="149" height="150" fill="white" transform="translate(0.928711)"/>
</clipPath>
</defs>
</svg>
