<svg width="151" height="150" viewBox="0 0 151 150" fill="none" xmlns="http://www.w3.org/2000/svg">
<g clip-path="url(#clip0)">
<path d="M150.339 129.311H0.339661V29.9359C0.339661 26.4985 3.15215 23.686 6.58955 23.686H144.089C147.527 23.686 150.339 26.4985 150.339 29.9359L150.339 129.311Z" fill="#A33131"/>
<path d="M139.085 60.5627H13.4601V10.6329C13.4601 7.1569 16.3297 4.31281 19.8369 4.31281H132.708C136.215 4.31281 139.085 7.1569 139.085 10.6329V60.5627V60.5627Z" fill="#F2F2F2"/>
<path d="M89.2906 6.37669L83.8143 17.9016L85.2038 20.7624L99.9165 20.7624L101.469 17.9016L95.993 6.37669C95.094 7.11233 93.9497 7.60275 92.6419 7.60275C91.3342 7.60275 90.1898 7.11233 89.2906 6.37669Z" fill="#EBE5D5"/>
<path d="M91.3252 2.03864L89.2817 6.37067C90.1809 7.10631 91.3251 7.59673 92.633 7.59673C93.9409 7.59673 95.0851 7.10631 95.9842 6.37068L93.9408 2.03864C93.2868 0.730826 91.979 0.730824 91.3252 2.03864Z" fill="#325667"/>
<path d="M83.8967 66.5525C83.8967 68.0238 85.1228 69.2498 86.5941 69.2498L98.6911 69.2499C100.162 69.2499 101.388 68.0238 101.388 66.5526L101.388 60.504L83.8968 60.504L83.8967 66.5525Z" fill="#E14A4A"/>
<path d="M83.8466 58.1219L83.8466 60.5494L101.416 60.5494L101.416 58.1219L83.8466 58.1219Z" fill="#F3B74B"/>
<path d="M98.8511 18.8834C97.7064 18.8834 96.7251 18.3928 96.071 17.5751C95.4986 18.9652 94.1904 19.9464 92.555 19.9464C90.9196 19.9464 89.6114 18.9652 89.039 17.5751C88.3849 18.3928 87.4037 18.8834 86.2589 18.8834C85.2777 18.8834 84.3783 18.4746 83.7241 17.8204L83.7241 58.0499L101.386 58.0499L101.468 17.9022C100.732 18.4746 99.8324 18.8834 98.8511 18.8834Z" fill="#FFD15C"/>
<path d="M54.715 15.562H32.215C30.144 15.562 28.465 17.2409 28.465 19.312C28.465 21.3831 30.144 23.062 32.215 23.062H54.715C56.786 23.062 58.465 21.3831 58.465 19.312C58.465 17.2409 56.786 15.562 54.715 15.562Z" fill="#DCDEE1"/>
<path d="M73.4649 28.6861H32.215C30.144 28.6861 28.465 30.365 28.465 32.4361C28.465 34.5071 30.144 36.1861 32.215 36.1861H73.4649C75.536 36.1861 77.2149 34.5071 77.2149 32.4361C77.2149 30.365 75.536 28.6861 73.4649 28.6861Z" fill="#DCDEE1"/>
<path d="M73.4649 41.811H32.215C30.144 41.811 28.465 43.49 28.465 45.561C28.465 47.6321 30.144 49.311 32.215 49.311H73.4649C75.536 49.311 77.2149 47.6321 77.2149 45.561C77.2149 43.49 75.536 41.811 73.4649 41.811Z" fill="#DCDEE1"/>
<path d="M112.135 0.660398L126.853 0.660396C127.835 0.660396 128.652 1.47809 128.652 2.4593L128.571 59.4511C128.571 60.4323 127.753 61.25 126.772 61.25L112.054 61.25C111.072 61.25 110.255 60.4323 110.255 59.4511L110.255 2.5411C110.173 1.4781 111.072 0.578682 112.135 0.660398Z" fill="#A4B2B9"/>
<path d="M126.686 3.95178L118.711 3.95178L118.711 2.91145L126.686 2.91145L126.686 3.95178Z" fill="white"/>
<path d="M126.729 7.87744L122.568 7.87744L122.568 6.83711L126.729 6.83711L126.729 7.87744Z" fill="white"/>
<path d="M126.729 11.7227L122.568 11.7227L122.568 10.6823L126.729 10.6823L126.729 11.7227Z" fill="white"/>
<path d="M126.74 15.7285L122.579 15.7285L122.579 14.6881L126.74 14.6881L126.74 15.7285Z" fill="white"/>
<path d="M126.712 19.7718L118.736 19.7718L118.736 18.7315L126.712 18.7315L126.712 19.7718Z" fill="white"/>
<path d="M126.752 23.5898H122.59V22.5495H126.752V23.5898Z" fill="white"/>
<path d="M126.752 27.2919H122.59V26.2515H126.752V27.2919Z" fill="white"/>
<path d="M126.647 31.4467H122.485V30.4064H126.647V31.4467Z" fill="white"/>
<path d="M126.733 35.4881L118.757 35.4881L118.757 34.4478L126.733 34.4478L126.733 35.4881Z" fill="white"/>
<path d="M126.665 39.2961L122.504 39.2961L122.504 38.2558L126.665 38.2558L126.665 39.2961Z" fill="white"/>
<path d="M126.746 43.345L118.77 43.345L118.77 42.3046L126.746 42.3046L126.746 43.345Z" fill="white"/>
<path d="M126.678 47.1555H122.517V46.1152H126.678V47.1555Z" fill="white"/>
<path d="M126.762 51.2015L118.786 51.2015L118.786 50.1612L126.762 50.1612L126.762 51.2015Z" fill="white"/>
<path d="M126.689 55.0124L122.527 55.0124L122.527 53.9721L126.689 53.9721L126.689 55.0124Z" fill="white"/>
<path d="M126.658 59.0564L118.682 59.0564L118.682 58.0161L126.658 58.0161L126.658 59.0564Z" fill="white"/>
<path d="M0.339371 59.0973V143.553C0.339371 147.099 3.15187 150 6.58927 150H144.089C147.527 150 150.339 147.099 150.339 143.553V43.9469C150.339 40.4012 147.527 37.5 144.089 37.5H111.277C107.839 37.5 105.027 40.4012 105.027 43.9469V46.2035C105.027 49.7492 102.214 52.6504 98.7769 52.6504H6.58957C3.15187 52.6504 0.339371 55.5515 0.339371 59.0973Z" fill="#CF4848"/>
</g>
<defs>
<clipPath id="clip0">
<rect width="150" height="150" fill="white" transform="translate(0.339355)"/>
</clipPath>
</defs>
</svg>
