<svg width="150" height="150" viewBox="0 0 150 150" fill="none" xmlns="http://www.w3.org/2000/svg">
<path fill-rule="evenodd" clip-rule="evenodd" d="M47.6429 0.435381C46.2422 1.16592 45.7207 1.77139 45.7207 2.66778C45.7207 3.44473 53.0627 19.5514 53.7137 20.2024C53.98 20.4688 56.8525 19.1582 58.0667 18.2157C58.3517 17.9945 57.3844 15.8656 53.9567 9.16986C51.4913 4.35384 49.3278 0.31535 49.1495 0.19591C48.7073 -0.100029 48.6535 -0.0914552 47.6429 0.435381ZM74.8161 14.3123C69.5445 15.0635 60.2483 17.8278 59.1207 18.9796C58.8528 19.2528 64.0896 29.8344 81.9006 65.0113L105.028 110.688L103.207 111.144C101.216 111.642 100.096 112.267 98.8909 113.55L98.1063 114.385L97.2389 112.537C96.762 111.52 87.0161 90.7322 75.5815 66.3416C64.1469 41.9511 54.6772 21.8663 54.5373 21.7087C53.8985 20.9888 46.9831 25.9577 42.6948 30.2179C28.8891 43.9343 23.0366 63.2474 26.9388 82.2138C33.7625 115.381 68.055 135.254 100.267 124.71C102.218 124.071 104.014 123.421 104.258 123.264C104.608 123.04 104.733 122.043 104.849 118.517L104.997 114.054L106.873 117.471C107.905 119.35 108.915 120.888 109.117 120.888C109.32 120.888 110.593 120.222 111.947 119.408C119.484 114.878 126.71 107.608 131.412 99.8235C141.152 83.6992 142.071 63.2412 133.825 46.1531C125.681 29.2783 110.856 18.0811 91.9888 14.5532C88.57 13.9141 78.5926 13.7739 74.8161 14.3123ZM106.864 123.05L104.886 123.98L104.558 125.868C104.377 126.907 104.269 127.783 104.317 127.815C104.366 127.846 105.452 128.515 106.73 129.3C110.099 131.369 113.133 133.864 116.791 137.576L120.01 140.844L118.806 138.626C115.075 131.757 114.118 130.2 113.562 130.097C112.501 129.9 112.173 129.41 112.353 128.287C112.494 127.404 112.292 126.821 111.124 124.729C110.356 123.352 109.528 122.202 109.284 122.173C109.04 122.144 107.951 122.538 106.864 123.05Z" fill="#1A8FCF"/>
<path fill-rule="evenodd" clip-rule="evenodd" d="M37.1027 20.8837C24.4432 31.1038 15.5949 45.1764 11.8666 61.02C10.7573 65.7349 10.2328 69.8183 10.0445 75.2108C9.43726 92.5994 15.0557 109.35 26.158 123.253C35.7412 135.253 50.0802 144.345 65.2674 148.052C71.8091 149.648 75.0077 150.006 82.6761 150C90.2957 149.993 93.3875 149.649 99.6877 148.105C103.228 147.237 109.22 145.284 109.672 144.851C110.112 144.429 97.776 133.896 96.8412 133.896C96.7055 133.896 95.4916 134.152 94.1438 134.466C89.1217 135.633 85.3496 136.044 79.5718 136.053C69.8762 136.068 61.4885 134.327 52.8921 130.516C32.3307 121.399 17.7632 101.9 14.8224 79.5565C14.3151 75.7025 14.2423 67.1871 14.6858 63.5252C16.6811 47.0393 25.0342 31.4488 37.2948 21.3269C38.5957 20.2528 39.7865 19.2654 39.9408 19.1326C40.1138 18.9836 40.0969 18.8908 39.8965 18.8908C39.7176 18.8908 38.4603 19.7875 37.1027 20.8837Z" fill="#EF6972"/>
</svg>
