<svg width="151" height="150" viewBox="0 0 151 150" fill="none" xmlns="http://www.w3.org/2000/svg">
<g clip-path="url(#clip0)">
<rect x="0.125" width="150" height="150" rx="5.35714" fill="#F5DD81"/>
<path d="M26.3745 46.875H122.511C124.582 46.875 126.261 48.5539 126.261 50.625C126.261 52.6961 124.582 54.375 122.511 54.375H26.3745C24.3034 54.375 22.6245 52.6961 22.6245 50.625C22.6245 48.5539 24.3034 46.875 26.3745 46.875Z" fill="#E4BD53"/>
<path d="M26.3745 71.2499H122.511C124.582 71.2499 126.261 72.9289 126.261 74.9999C126.261 77.071 124.582 78.7499 122.511 78.7499H26.3745C24.3034 78.7499 22.6245 77.071 22.6245 74.9999C22.6245 72.9289 24.3034 71.2499 26.3745 71.2499Z" fill="#E4BD53"/>
<path d="M26.3745 95.6249H122.511C124.582 95.6249 126.261 97.3038 126.261 99.3749C126.261 101.446 124.582 103.125 122.511 103.125H26.3745C24.3034 103.125 22.6245 101.446 22.6245 99.3749C22.6245 97.3038 24.3034 95.6249 26.3745 95.6249Z" fill="#E4BD53"/>
<path d="M26.3742 120H88.2491C90.3202 120 91.9991 121.679 91.9991 123.75C91.9991 125.821 90.3202 127.5 88.2491 127.5H26.3742C24.3031 127.5 22.6242 125.821 22.6242 123.75C22.6242 121.679 24.3031 120 26.3742 120Z" fill="#E4BD53"/>
<path d="M26.7979 22.5001H69.4295C71.5006 22.5001 73.1795 24.179 73.1795 26.2501C73.1795 28.3211 71.5006 30.0001 69.4295 30.0001H26.7979C24.7268 30.0001 23.0479 28.3211 23.0479 26.2501C23.0479 24.179 24.7268 22.5001 26.7979 22.5001Z" fill="#D2AB3E"/>
</g>
<defs>
<clipPath id="clip0">
<rect width="150" height="150" fill="white" transform="matrix(-1 0 0 1 150.125 0)"/>
</clipPath>
</defs>
</svg>
