<svg width="28" height="28" viewBox="0 0 28 28" fill="none" xmlns="http://www.w3.org/2000/svg">
<rect width="28" height="28" rx="1" fill="#F5DD81"/>
<path d="M4.8999 8.75H22.8453C23.2319 8.75 23.5453 9.0634 23.5453 9.45C23.5453 9.8366 23.2319 10.15 22.8453 10.15H4.8999C4.5133 10.15 4.1999 9.8366 4.1999 9.45C4.1999 9.0634 4.5133 8.75 4.8999 8.75Z" fill="#E4BD53"/>
<path d="M4.8999 13.3H22.8454C23.2319 13.3 23.5453 13.6134 23.5453 14C23.5453 14.3866 23.2319 14.7 22.8454 14.7H4.8999C4.5133 14.7 4.1999 14.3866 4.1999 14C4.1999 13.6134 4.5133 13.3 4.8999 13.3Z" fill="#E4BD53"/>
<path d="M4.8999 17.8499H22.8454C23.2319 17.8499 23.5453 18.1633 23.5453 18.5499C23.5453 18.9365 23.2319 19.2499 22.8454 19.2499H4.8999C4.5133 19.2499 4.1999 18.9365 4.1999 18.5499C4.1999 18.1633 4.5133 17.8499 4.8999 17.8499Z" fill="#E4BD53"/>
<path d="M4.89984 22.4001H16.4498C16.8364 22.4001 17.1498 22.7135 17.1498 23.1001C17.1498 23.4867 16.8364 23.8001 16.4498 23.8001H4.89984C4.51324 23.8001 4.19984 23.4867 4.19984 23.1001C4.19984 22.7135 4.51324 22.4001 4.89984 22.4001Z" fill="#E4BD53"/>
<path d="M4.97893 4.19995H12.9368C13.3234 4.19995 13.6368 4.51335 13.6368 4.89995C13.6368 5.28655 13.3234 5.59995 12.9368 5.59995H4.97893C4.59233 5.59995 4.27893 5.28655 4.27893 4.89995C4.27893 4.51335 4.59233 4.19995 4.97893 4.19995Z" fill="#D2AB3E"/>
</svg>
