<svg width="150" height="150" viewBox="0 0 150 150" fill="none" xmlns="http://www.w3.org/2000/svg">
<rect width="150" height="150" rx="5.35714" fill="#F5DD81"/>
<path d="M26.2495 46.875H122.386C124.457 46.875 126.136 48.5539 126.136 50.625C126.136 52.6961 124.457 54.375 122.386 54.375H26.2495C24.1784 54.375 22.4995 52.6961 22.4995 50.625C22.4995 48.5539 24.1784 46.875 26.2495 46.875Z" fill="#E4BD53"/>
<path d="M26.2495 71.2499H122.386C124.457 71.2499 126.136 72.9289 126.136 74.9999C126.136 77.071 124.457 78.7499 122.386 78.7499H26.2495C24.1784 78.7499 22.4995 77.071 22.4995 74.9999C22.4995 72.9289 24.1784 71.2499 26.2495 71.2499Z" fill="#E4BD53"/>
<path d="M26.2495 95.6249H122.386C124.457 95.6249 126.136 97.3038 126.136 99.3749C126.136 101.446 124.457 103.125 122.386 103.125H26.2495C24.1784 103.125 22.4995 101.446 22.4995 99.3749C22.4995 97.3038 24.1784 95.6249 26.2495 95.6249Z" fill="#E4BD53"/>
<path d="M26.2491 120H88.1241C90.1952 120 91.8741 121.679 91.8741 123.75C91.8741 125.821 90.1952 127.5 88.1241 127.5H26.2491C24.1781 127.5 22.4991 125.821 22.4991 123.75C22.4991 121.679 24.1781 120 26.2491 120Z" fill="#E4BD53"/>
<path d="M26.6729 22.5001H69.3045C71.3756 22.5001 73.0545 24.179 73.0545 26.2501C73.0545 28.3211 71.3756 30.0001 69.3045 30.0001H26.6729C24.6018 30.0001 22.9229 28.3211 22.9229 26.2501C22.9229 24.179 24.6018 22.5001 26.6729 22.5001Z" fill="#D2AB3E"/>
</svg>
