<svg width="151" height="150" viewBox="0 0 151 150" fill="none" xmlns="http://www.w3.org/2000/svg">
<g clip-path="url(#clip0)">
<path d="M85.4104 84.7945C83.0662 82.849 81.5909 80.0218 81.5909 76.875L81.5909 10.625C81.5909 7.98154 82.6321 5.56358 84.3548 3.70437C86.4562 1.43647 89.5718 0 93.0493 0L138.883 0C145.211 0 150.341 4.75698 150.341 10.625V76.875C150.341 82.743 145.211 87.5 138.883 87.5L93.0493 87.5C90.1146 87.5 87.4376 86.477 85.4104 84.7945Z" fill="#9D7CDC"/>
<path d="M131.661 50L100.338 50C97.0582 50 94.1625 47.1814 94.1625 43.75C94.1625 40.3186 97.0411 37.5 100.338 37.5L131.661 37.5C134.787 37.5 137.839 40.3181 137.839 43.75C137.839 47.1819 134.787 50 131.661 50Z" fill="#7E49DB"/>
<path d="M112.911 74.9994H100.338C97.0582 74.9994 94.1625 72.1808 94.1625 68.7494C94.1625 65.3181 97.0411 62.4995 100.338 62.4995H112.911C116.037 62.4995 119.089 65.3175 119.089 68.7494C119.089 72.1814 116.037 74.9994 112.911 74.9994Z" fill="#7E49DB"/>
<path d="M122.286 25.0005L100.338 25.0005C97.0582 25.0005 94.1625 22.1819 94.1625 18.7505C94.1625 15.3192 97.0411 12.5005 100.338 12.5005L122.286 12.5005C125.412 12.5005 128.464 15.3186 128.464 18.7505C128.464 22.1825 125.412 25.0005 122.286 25.0005Z" fill="#7E49DB"/>
<path d="M85.4104 147.294C83.0662 145.349 81.5909 142.521 81.5909 139.375V110.624C81.5909 107.981 82.6321 105.563 84.3548 103.704C86.4562 101.436 89.5718 99.9995 93.0493 99.9995H138.883C145.211 99.9995 150.341 104.756 150.341 110.624V139.375C150.341 145.243 145.211 150 138.883 150H93.0493C90.1146 150 87.4376 148.976 85.4104 147.294Z" fill="#E9787A"/>
<path d="M11.1945 62.5C8.49373 62.5 6.02333 61.4352 4.12384 59.6734C1.8068 57.5242 0.339233 54.3377 0.339233 50.7812L0.339233 11.7187C0.339233 5.24666 5.1993 0 11.1945 0L58.234 0C61.5284 0 64.4801 1.58435 66.4709 4.0857C68.1029 6.1363 69.0892 8.80316 69.0892 11.7187V50.7812C69.0892 54.2519 67.6916 57.3703 65.4708 59.516C65.4159 59.5691 65.3605 59.6215 65.3046 59.6733C63.4051 61.4352 60.9347 62.5 58.234 62.5L11.1945 62.5Z" fill="#53B67D"/>
<path fill-rule="evenodd" clip-rule="evenodd" d="M4.12389 77.5844C1.80684 79.5493 0.339233 82.4626 0.339233 85.7143L0.339233 139.286C0.339233 145.203 5.1993 150 11.1945 150H58.234C64.2292 150 69.0892 145.203 69.0892 139.286L69.0892 85.7143C69.0892 82.5411 67.6916 79.69 65.4708 77.7282C65.4159 77.6797 65.3605 77.6318 65.3046 77.5844C63.4051 75.9735 60.9347 75 58.234 75H11.1945C8.49374 75 6.02338 75.9735 4.12389 77.5844Z" fill="#FF8D5B"/>
<path d="M131.588 125H100.338C97.0582 125 94.1625 122.181 94.1625 118.75C94.1625 115.319 97.0411 112.5 100.338 112.5H131.588C134.714 112.5 137.766 115.318 137.766 118.75C137.766 122.182 134.714 125 131.588 125Z" fill="#BC5F60"/>
<path d="M50.2634 100.001H19.0134C15.7332 100.001 12.8375 97.1819 12.8375 93.7505C12.8375 90.3192 15.7162 87.5005 19.0134 87.5005H50.2634C53.3893 87.5005 56.4413 90.3186 56.4413 93.7505C56.4413 97.1825 53.3893 100.001 50.2634 100.001Z" fill="#C5704B"/>
<path d="M41.0346 125H19.0134C15.7332 125 12.8375 122.181 12.8375 118.75C12.8375 115.319 15.7162 112.5 19.0134 112.5H41.0346C44.1605 112.5 47.2125 115.318 47.2125 118.75C47.2125 122.182 44.1605 125 41.0346 125Z" fill="#C5704B"/>
<path d="M50.2634 25.0005L19.0134 25.0005C15.7332 25.0005 12.8375 22.1819 12.8375 18.7505C12.8375 15.3192 15.7162 12.5005 19.0134 12.5005L50.2634 12.5005C53.3893 12.5005 56.4413 15.3186 56.4413 18.7505C56.4413 22.1825 53.3893 25.0005 50.2634 25.0005Z" fill="#3E8B5F"/>
<path d="M37.9096 50H19.0134C15.7332 50 12.8375 47.1814 12.8375 43.75C12.8375 40.3186 15.7162 37.5 19.0134 37.5H37.9096C41.0355 37.5 44.0875 40.3181 44.0875 43.75C44.0875 47.1819 41.0355 50 37.9096 50Z" fill="#3E8B5F"/>
</g>
<defs>
<clipPath id="clip0">
<rect width="150" height="150" fill="white" transform="translate(0.339233)"/>
</clipPath>
</defs>
</svg>
