<svg width="28" height="28" viewBox="0 0 28 28" fill="none" xmlns="http://www.w3.org/2000/svg">
<g clip-path="url(#clip0)">
<path d="M15.88 15.8283C15.4424 15.4652 15.167 14.9374 15.167 14.35L15.167 1.98333C15.167 1.48989 15.3613 1.03853 15.6829 0.691483C16.0752 0.268142 16.6568 0 17.3059 0L25.8614 0C27.0427 0 28.0003 0.887969 28.0003 1.98333V14.35C28.0003 15.4454 27.0427 16.3333 25.8614 16.3333H17.3059C16.7581 16.3333 16.2584 16.1424 15.88 15.8283Z" fill="#9D7CDC"/>
<path d="M24.5135 9.33333H18.6665C18.0542 9.33333 17.5137 8.80719 17.5137 8.16667C17.5137 7.52614 18.051 7 18.6665 7L24.5135 7C25.097 7 25.6667 7.52604 25.6667 8.16667C25.6667 8.80729 25.097 9.33333 24.5135 9.33333Z" fill="#7E49DB"/>
<path d="M21.0135 13.9998H18.6665C18.0542 13.9998 17.5137 13.4737 17.5137 12.8332C17.5137 12.1926 18.051 11.6665 18.6665 11.6665H21.0135C21.597 11.6665 22.1667 12.1925 22.1667 12.8332C22.1667 13.4738 21.597 13.9998 21.0135 13.9998Z" fill="#7E49DB"/>
<path d="M22.7635 4.66683H18.6665C18.0542 4.66683 17.5137 4.14069 17.5137 3.50016C17.5137 2.85964 18.051 2.3335 18.6665 2.3335L22.7635 2.3335C23.347 2.3335 23.9167 2.85954 23.9167 3.50016C23.9167 4.14079 23.347 4.66683 22.7635 4.66683Z" fill="#7E49DB"/>
<path d="M15.88 27.4948C15.4424 27.1317 15.167 26.6039 15.167 26.0165L15.167 20.6498C15.167 20.1564 15.3613 19.705 15.6829 19.358C16.0752 18.9346 16.6568 18.6665 17.3059 18.6665H25.8614C27.0427 18.6665 28.0003 19.5545 28.0003 20.6498V26.0165C28.0003 27.1119 27.0427 27.9999 25.8614 27.9999H17.3059C16.7581 27.9999 16.2584 27.8089 15.88 27.4948Z" fill="#E9787A"/>
<path d="M2.02632 11.6667C1.52217 11.6667 1.06103 11.4679 0.706459 11.139C0.273945 10.7378 0 10.143 0 9.47917L0 2.1875C0 0.979377 0.907212 0 2.02632 0L10.807 0C11.422 0 11.973 0.295744 12.3446 0.762665C12.6492 1.14544 12.8333 1.64326 12.8333 2.1875L12.8333 9.47917C12.8333 10.127 12.5724 10.7091 12.1579 11.1097C12.1476 11.1196 12.1373 11.1293 12.1269 11.139C11.7723 11.4679 11.3112 11.6667 10.807 11.6667L2.02632 11.6667Z" fill="#53B67D"/>
<path fill-rule="evenodd" clip-rule="evenodd" d="M0.706468 14.4824C0.273953 14.8492 0 15.393 0 16L0 26C0 27.1046 0.907213 28 2.02632 28H10.807C11.9261 28 12.8333 27.1046 12.8333 26L12.8333 16C12.8333 15.4077 12.5724 14.8755 12.1579 14.5093C12.1476 14.5002 12.1373 14.4913 12.1269 14.4824C11.7723 14.1817 11.3112 14 10.807 14L2.02632 14C1.52218 14 1.06104 14.1817 0.706468 14.4824Z" fill="#FF8D5B"/>
<path d="M24.4998 23.3333H18.6665C18.0542 23.3333 17.5137 22.8072 17.5137 22.1667C17.5137 21.5261 18.051 21 18.6665 21H24.4998C25.0833 21 25.653 21.526 25.653 22.1667C25.653 22.8073 25.0833 23.3333 24.4998 23.3333Z" fill="#BC5F60"/>
<path d="M9.31917 18.6668H3.48584C2.87353 18.6668 2.33301 18.1407 2.33301 17.5002C2.33301 16.8596 2.87035 16.3335 3.48584 16.3335H9.31917C9.90267 16.3335 10.4724 16.8595 10.4724 17.5002C10.4724 18.1408 9.90267 18.6668 9.31917 18.6668Z" fill="#C5704B"/>
<path d="M7.59647 23.3333H3.48584C2.87353 23.3333 2.33301 22.8072 2.33301 22.1667C2.33301 21.5261 2.87035 21 3.48584 21H7.59647C8.17997 21 8.74967 21.526 8.74967 22.1667C8.74967 22.8073 8.17997 23.3333 7.59647 23.3333Z" fill="#C5704B"/>
<path d="M9.31917 4.66683L3.48584 4.66683C2.87353 4.66683 2.33301 4.14069 2.33301 3.50016C2.33301 2.85964 2.87035 2.3335 3.48584 2.3335L9.31917 2.3335C9.90267 2.3335 10.4724 2.85954 10.4724 3.50016C10.4724 4.14079 9.90267 4.66683 9.31917 4.66683Z" fill="#3E8B5F"/>
<path d="M7.01314 9.33333H3.48584C2.87353 9.33333 2.33301 8.80719 2.33301 8.16667C2.33301 7.52614 2.87035 7 3.48584 7L7.01314 7C7.59663 7 8.16634 7.52604 8.16634 8.16667C8.16634 8.80729 7.59663 9.33333 7.01314 9.33333Z" fill="#3E8B5F"/>
</g>
<defs>
<clipPath id="clip0">
<rect width="28" height="28" fill="white"/>
</clipPath>
</defs>
</svg>
