<svg width="150" height="150" viewBox="0 0 150 150" fill="none" xmlns="http://www.w3.org/2000/svg">
<g clip-path="url(#clip0)">
<path d="M85.4325 84.7945C83.104 82.849 81.6385 80.0218 81.6385 76.875L81.6385 10.625C81.6385 7.98154 82.6727 5.56358 84.3839 3.70437C86.4713 1.43647 89.5662 0 93.0205 0L138.548 0C144.834 0 149.93 4.75698 149.93 10.625V76.875C149.93 82.743 144.834 87.5 138.548 87.5L93.0205 87.5C90.1054 87.5 87.4462 86.477 85.4325 84.7945Z" fill="#9D7CDC"/>
<path d="M131.375 50L100.261 50C97.0026 50 94.1262 47.1814 94.1262 43.75C94.1262 40.3186 96.9857 37.5 100.261 37.5L131.375 37.5C134.48 37.5 137.512 40.3181 137.512 43.75C137.512 47.1819 134.48 50 131.375 50Z" fill="#7E49DB"/>
<path d="M112.75 74.9995H100.261C97.0026 74.9995 94.1262 72.1808 94.1262 68.7495C94.1262 65.3181 96.9857 62.4995 100.261 62.4995H112.75C115.855 62.4995 118.887 65.3175 118.887 68.7495C118.887 72.1814 115.855 74.9995 112.75 74.9995Z" fill="#7E49DB"/>
<path d="M122.063 25.0006L100.261 25.0006C97.0026 25.0006 94.1262 22.1819 94.1262 18.7506C94.1262 15.3192 96.9857 12.5005 100.261 12.5005L122.063 12.5005C125.168 12.5005 128.199 15.3186 128.199 18.7506C128.199 22.1825 125.168 25.0006 122.063 25.0006Z" fill="#7E49DB"/>
<path d="M85.4325 147.294C83.104 145.349 81.6385 142.521 81.6385 139.375V110.624C81.6385 107.981 82.6727 105.563 84.3839 103.704C86.4713 101.436 89.5662 99.9995 93.0205 99.9995H138.548C144.834 99.9995 149.93 104.756 149.93 110.624V139.375C149.93 145.243 144.834 150 138.548 150H93.0205C90.1054 150 87.4462 148.977 85.4325 147.294Z" fill="#E9787A"/>
<path d="M11.7114 62.5C9.02861 62.5 6.57467 61.4352 4.68784 59.6734C2.38625 57.5242 0.928467 54.3377 0.928467 50.7812L0.928467 11.7187C0.928467 5.24666 5.75613 0 11.7114 0L58.4372 0C61.7097 0 64.6417 1.58435 66.6192 4.0857C68.2404 6.1363 69.2201 8.80316 69.2201 11.7187V50.7812C69.2201 54.2519 67.8318 57.3703 65.6258 59.516C65.5713 59.5691 65.5162 59.6215 65.4607 59.6733C63.5739 61.4352 61.12 62.5 58.4372 62.5L11.7114 62.5Z" fill="#53B67D"/>
<path fill-rule="evenodd" clip-rule="evenodd" d="M4.68789 77.5844C2.38629 79.5493 0.928467 82.4626 0.928467 85.7143L0.928467 139.286C0.928467 145.203 5.75613 150 11.7114 150H58.4372C64.3925 150 69.2201 145.203 69.2201 139.286L69.2201 85.7143C69.2201 82.5411 67.8318 79.69 65.6258 77.7282C65.5713 77.6797 65.5162 77.6318 65.4607 77.5844C63.5739 75.9735 61.12 75 58.4372 75H11.7114C9.02861 75 6.57472 75.9735 4.68789 77.5844Z" fill="#FF8D5B"/>
<path d="M131.303 125H100.261C97.0026 125 94.1262 122.181 94.1262 118.75C94.1262 115.319 96.9857 112.5 100.261 112.5H131.303C134.408 112.5 137.439 115.318 137.439 118.75C137.439 122.182 134.408 125 131.303 125Z" fill="#BC5F60"/>
<path d="M50.5198 100.001H19.4781C16.2198 100.001 13.3434 97.1819 13.3434 93.7505C13.3434 90.3192 16.2029 87.5005 19.4781 87.5005H50.5198C53.6248 87.5005 56.6565 90.3186 56.6565 93.7505C56.6565 97.1825 53.6248 100.001 50.5198 100.001Z" fill="#C5704B"/>
<path d="M41.3525 125H19.4781C16.2198 125 13.3434 122.181 13.3434 118.75C13.3434 115.319 16.2029 112.5 19.4781 112.5H41.3525C44.4576 112.5 47.4892 115.318 47.4892 118.75C47.4892 122.182 44.4576 125 41.3525 125Z" fill="#C5704B"/>
<path d="M50.5198 25.0006L19.4781 25.0006C16.2198 25.0006 13.3434 22.1819 13.3434 18.7506C13.3434 15.3192 16.2029 12.5005 19.4781 12.5005L50.5198 12.5005C53.6248 12.5005 56.6565 15.3186 56.6565 18.7506C56.6565 22.1825 53.6248 25.0006 50.5198 25.0006Z" fill="#3E8B5F"/>
<path d="M38.2484 50H19.4781C16.2198 50 13.3434 47.1814 13.3434 43.75C13.3434 40.3186 16.2029 37.5 19.4781 37.5H38.2484C41.3534 37.5 44.3851 40.3181 44.3851 43.75C44.3851 47.1819 41.3534 50 38.2484 50Z" fill="#3E8B5F"/>
</g>
<defs>
<clipPath id="clip0">
<rect width="149" height="150" fill="white" transform="translate(0.928467)"/>
</clipPath>
</defs>
</svg>
