<svg width="150" height="150" viewBox="0 0 150 150" fill="none" xmlns="http://www.w3.org/2000/svg">
<path d="M75.5492 95.7914C67.0764 95.7914 59.3096 91.8688 54.681 85.2004C53.2688 83.1607 53.7395 80.3364 55.7793 78.9243C57.819 77.5121 60.6433 77.9828 62.0554 80.0226C65.0366 84.259 70.0575 86.7694 75.5492 86.7694C81.0408 86.7694 86.0617 84.259 89.0429 80.0226C90.455 77.9828 93.2793 77.5121 95.319 78.9243C97.3588 80.3364 97.8295 83.1607 96.4174 85.2004C91.7887 91.8688 83.9435 95.7914 75.5492 95.7914Z" fill="#F68A20"/>
<path d="M59.3881 119.798C26.6736 119.798 0 99.6356 0 74.8448C0 65.9797 3.29498 57.5069 9.64959 50.2109L3.53034 31.4609C2.98118 29.735 3.53034 27.8521 4.86402 26.6753C6.1977 25.4986 8.159 25.1847 9.80649 25.9693L29.9686 35.6973C38.9121 31.8532 49.0324 29.8134 59.3881 29.8134C92.1025 29.8134 118.776 49.9755 118.776 74.7663C118.776 99.6356 92.1025 119.798 59.3881 119.798ZM15.455 38.7569L19.0638 49.8971C19.613 51.4661 19.2207 53.2705 18.0439 54.4473C12.16 60.4881 9.10042 67.5488 9.10042 74.7663C9.10042 94.5362 31.6946 110.697 59.4665 110.697C87.2385 110.697 109.833 94.6147 109.833 74.7663C109.833 54.9965 87.2385 38.8354 59.4665 38.8354C49.6601 38.8354 40.0889 40.8751 31.9299 44.7193C30.6747 45.2684 29.2626 45.2684 28.0073 44.7193L15.455 38.7569Z" fill="#F05B24"/>
<path d="M95.2406 63.548C95.2406 67.3921 92.181 70.4517 88.3368 70.4517C84.4927 70.4517 81.4331 67.3921 81.4331 63.548C81.4331 59.7038 84.4927 56.6442 88.3368 56.6442C92.181 56.6442 95.2406 59.7823 95.2406 63.548ZM55.7793 63.548C55.7793 67.3921 58.8389 70.4517 62.6831 70.4517C66.5272 70.4517 69.5868 67.3921 69.5868 63.548C69.5868 59.7038 66.5272 56.6442 62.6831 56.6442C58.9174 56.6442 55.7793 59.7823 55.7793 63.548ZM142.155 124.113C143.253 124.113 144.273 123.721 145.136 123.014C146.47 121.838 147.019 119.955 146.47 118.229L140.35 99.4789C146.705 92.1829 150 83.7101 150 74.845C150 50.0542 123.326 29.8921 90.6119 29.8921C57.8975 29.8921 31.2238 50.0542 31.2238 74.845C31.2238 99.6358 57.8975 119.798 90.6119 119.798C100.968 119.798 111.088 117.758 120.031 113.914L140.194 123.642C140.821 123.956 141.527 124.113 142.155 124.113ZM120.11 104.421C119.482 104.421 118.776 104.578 118.149 104.892C109.911 108.736 100.418 110.776 90.6119 110.776C62.84 110.776 40.2458 94.6934 40.2458 74.845C40.2458 55.0751 62.84 38.9141 90.6119 38.9141C118.384 38.9141 140.978 54.9967 140.978 74.845C140.978 82.1411 137.84 89.2017 132.035 95.2425C130.858 96.4193 130.465 98.2237 131.015 99.7927L134.623 110.933L122.15 104.892C121.444 104.578 120.816 104.421 120.11 104.421Z" fill="#0685C1"/>
</svg>
