<svg width="150" height="150" viewBox="0 0 150 150" fill="none" xmlns="http://www.w3.org/2000/svg">
<path fill-rule="evenodd" clip-rule="evenodd" d="M113.113 51.078C112.36 48.6667 110.712 46.4889 108.151 45.1048L84.2979 32.2134C78.1736 28.9035 70.7969 28.8884 64.6592 32.1732L53.6678 38.0555C51.4595 39.2373 50.6274 41.9854 51.8092 44.1937C52.991 46.4019 55.7391 47.234 57.9474 46.0522L68.9388 40.17C72.3913 38.3223 76.5407 38.3308 79.9856 40.1926L103.839 53.084C104.69 53.544 104.734 54.7056 104.014 55.252L113.113 51.078Z" fill="#ACCDFF"/>
<path d="M66.9795 113.513L42.7914 100.501C39.7638 98.8729 37.8755 95.713 37.8755 92.2752V64.2922C37.8755 60.0869 42.3349 57.3796 46.0659 59.3199L70.2079 71.875C73.2994 73.4827 75.239 76.6776 75.239 80.1622V96.5391V108.577C75.239 112.817 70.7133 115.521 66.9795 113.513Z" fill="#3F91E8"/>
<path d="M70.708 82.9172L44.3534 94.4284C43.6113 94.7526 43.568 95.7891 44.2805 96.174L69.2743 109.676C69.9218 110.026 70.708 109.557 70.708 108.821V82.9172Z" fill="#3B89E0"/>
<g filter="url(#filter0_f)">
<path d="M42.3041 63.5665V69.0544C42.3041 74.7436 45.9165 79.8053 51.2968 81.6547L70.5337 88.2674V104.147C72.3762 114.833 61.3687 123.162 51.6071 118.44L44.0936 114.805C44.0936 114.805 30.3751 108.748 26.4078 100.792C21.5289 91.0085 23.5955 73.0538 31.3164 65.3485C36.1263 60.5485 42.3041 63.5665 42.3041 63.5665Z" fill="#41A5DE" fill-opacity="0.4"/>
</g>
<path fill-rule="evenodd" clip-rule="evenodd" d="M88.92 5.24213C80.2448 0.758861 69.9565 0.659226 61.1961 4.97366L19.6498 25.4347C17.2425 26.6204 16.252 29.533 17.4376 31.9404C18.6232 34.3478 21.5359 35.3382 23.9433 34.1526L65.4896 13.6915C71.4835 10.7395 78.5229 10.8077 84.4586 13.8752L130.166 37.496C132.564 38.7354 132.483 42.1924 130.029 43.318L78.654 66.8857C76.0869 68.0633 73.1177 67.9778 70.6225 66.6545L41.8616 51.4005L27.543 43.9235C17.8382 38.8557 6.21911 45.8961 6.21911 56.8445V101.152C6.21911 110.275 11.3301 118.629 19.4528 122.782L60.5163 143.78C69.2473 148.245 79.5834 148.281 88.3453 143.877L130.352 122.765C138.558 118.641 143.737 110.242 143.737 101.058V64.4537C143.737 61.7702 141.562 59.5948 138.878 59.5948C136.195 59.5948 134.019 61.7702 134.019 64.4537V101.058C134.019 106.569 130.912 111.608 125.988 114.083L83.9815 135.194C77.9865 138.207 70.9145 138.182 64.9406 135.128L23.8771 114.13C19.0035 111.638 15.9369 106.625 15.9369 101.152V56.8445C15.9369 53.1951 19.8099 50.8482 23.0449 52.5375L37.3358 60.0001L37.3634 60.0146L66.0692 75.2395C71.2378 77.9808 77.3883 78.1578 82.7059 75.7184L134.081 52.1507C143.896 47.6483 144.22 33.8204 134.627 28.863L88.92 5.24213Z" fill="url(#paint0_linear)"/>
<path fill-rule="evenodd" clip-rule="evenodd" d="M34.9683 58.7639C33.9491 60.3247 33.3429 62.2066 33.3429 64.2922V92.2752C33.3429 97.3819 36.148 102.076 40.6453 104.495L62.4811 116.241L65.8414 117.982C69.0435 119.345 72.6337 120.168 75.2536 120.168C78.124 120.168 81.7008 119.286 84.8188 117.837C85.1185 117.708 86.3167 117.071 86.6115 116.91C86.3394 117.066 86.8949 116.762 86.6115 116.91L109.921 104.169C114.373 101.735 117.142 97.0665 117.142 91.9931V77.7796C117.142 75.275 115.111 73.2446 112.607 73.2446C110.102 73.2446 108.072 75.275 108.072 77.7796V91.9931C108.072 93.7503 107.113 95.3674 105.571 96.2102L81.3609 109.443C80.6481 109.833 79.7783 109.317 79.7783 108.505V79.7828C79.7783 78.4483 80.3306 77.2011 81.2621 76.3098C80.6435 76.5336 80.0162 76.7237 79.383 76.8804C75.9568 77.7278 72.3554 77.5929 68.9988 76.4881C70.0681 77.3898 70.7064 78.7283 70.7064 80.1621V108.577C70.7064 109.386 69.8427 109.902 69.1301 109.519L44.942 96.5076C43.3843 95.6697 42.4128 94.0439 42.4128 92.2752V64.2922C42.4128 63.6969 42.881 63.2589 43.4134 63.2235L37.3633 60.0146L37.3357 60.0001L34.9683 58.7639Z" fill="#ACCDFF"/>
<defs>
<filter id="filter0_f" x="1.15407" y="40.0056" width="92.2077" height="102.412" filterUnits="userSpaceOnUse" color-interpolation-filters="sRGB">
<feFlood flood-opacity="0" result="BackgroundImageFix"/>
<feBlend mode="normal" in="SourceGraphic" in2="BackgroundImageFix" result="shape"/>
<feGaussianBlur stdDeviation="11.3122" result="effect1_foregroundBlur"/>
</filter>
<linearGradient id="paint0_linear" x1="23.7813" y1="138.551" x2="97.0017" y2="61.8019" gradientUnits="userSpaceOnUse">
<stop stop-color="#3888FF"/>
<stop offset="1" stop-color="#1D72D8"/>
</linearGradient>
</defs>
</svg>
