<svg width="151" height="150" viewBox="0 0 151 150" fill="none" xmlns="http://www.w3.org/2000/svg">
<path fill-rule="evenodd" clip-rule="evenodd" d="M113.523 51.078C112.771 48.6667 111.123 46.4889 108.562 45.1048L84.7086 32.2134C78.5844 28.9035 71.2077 28.8884 65.0699 32.1732L54.0785 38.0555C51.8703 39.2373 51.0382 41.9854 52.22 44.1937C53.4017 46.4019 56.1499 47.234 58.3582 46.0522L69.3495 40.17C72.802 38.3223 76.9514 38.3308 80.3963 40.1926L104.25 53.084C105.101 53.544 105.145 54.7056 104.425 55.252L113.523 51.078Z" fill="#ACCDFF"/>
<path d="M67.3902 113.513L43.2021 100.501C40.1746 98.8729 38.2863 95.713 38.2863 92.2752V64.2922C38.2863 60.0869 42.7457 57.3796 46.4767 59.3199L70.6187 71.875C73.7102 73.4827 75.6498 76.6776 75.6498 80.1622V96.5391V108.577C75.6498 112.817 71.1241 115.521 67.3902 113.513Z" fill="#3F91E8"/>
<path d="M71.1189 82.9172L44.7643 94.4285C44.0222 94.7526 43.9789 95.7891 44.6914 96.174L69.6852 109.676C70.3327 110.026 71.1189 109.557 71.1189 108.821V82.9172Z" fill="#3B89E0"/>
<g filter="url(#filter0_f)">
<path d="M42.715 63.5665V69.0544C42.715 74.7436 46.3274 79.8053 51.7077 81.6547L70.9446 88.2674V104.147C72.787 114.833 61.7796 123.162 52.018 118.44L44.5045 114.805C44.5045 114.805 30.7859 108.748 26.8187 100.792C21.9397 91.0085 24.0064 73.0538 31.7273 65.3485C36.5372 60.5485 42.715 63.5665 42.715 63.5665Z" fill="#41A5DE" fill-opacity="0.4"/>
</g>
<path fill-rule="evenodd" clip-rule="evenodd" d="M89.3307 5.24213C80.6555 0.758861 70.3673 0.659226 61.6068 4.97366L20.0605 25.4347C17.6532 26.6204 16.6627 29.533 17.8483 31.9404C19.0339 34.3478 21.9466 35.3382 24.354 34.1526L65.9003 13.6915C71.8942 10.7395 78.9336 10.8077 84.8693 13.8752L130.576 37.496C132.974 38.7354 132.893 42.1924 130.44 43.318L79.0647 66.8857C76.4976 68.0633 73.5284 67.9778 71.0332 66.6545L42.2723 51.4005L27.9537 43.9235C18.2489 38.8557 6.62981 45.8961 6.62981 56.8445V101.152C6.62981 110.275 11.7408 118.629 19.8635 122.782L60.927 143.78C69.658 148.245 79.9941 148.281 88.756 143.877L130.763 122.765C138.969 118.641 144.148 110.242 144.148 101.058V64.4537C144.148 61.7702 141.972 59.5948 139.289 59.5948C136.605 59.5948 134.43 61.7702 134.43 64.4537V101.058C134.43 106.569 131.323 111.608 126.399 114.083L84.3922 135.194C78.3972 138.207 71.3252 138.182 65.3513 135.128L24.2878 114.13C19.4142 111.638 16.3476 106.625 16.3476 101.152V56.8445C16.3476 53.1951 20.2206 50.8482 23.4556 52.5375L37.7465 60.0001L37.7741 60.0146L66.48 75.2395C71.6485 77.9808 77.799 78.1578 83.1166 75.7184L134.492 52.1507C144.306 47.6483 144.631 33.8204 135.038 28.863L89.3307 5.24213Z" fill="url(#paint0_linear)"/>
<path fill-rule="evenodd" clip-rule="evenodd" d="M35.379 58.7639C34.3599 60.3248 33.7537 62.2067 33.7537 64.2922V92.2752C33.7537 97.382 36.5587 102.076 41.0561 104.495L62.8919 116.241L66.2522 117.982C69.4543 119.345 73.0444 120.169 75.6643 120.169C78.5348 120.169 82.1116 119.286 85.2296 117.837C85.5293 117.708 86.7275 117.071 87.0223 116.91C86.7502 117.066 87.3057 116.763 87.0223 116.91L110.332 104.169C114.784 101.736 117.553 97.0666 117.553 91.9932V77.7796C117.553 75.275 115.522 73.2447 113.018 73.2447C110.513 73.2447 108.483 75.275 108.483 77.7796V91.9932C108.483 93.7504 107.524 95.3675 105.982 96.2103L81.7716 109.443C81.0589 109.833 80.1891 109.317 80.1891 108.505V79.7828C80.1891 78.4483 80.7414 77.2011 81.6728 76.3099C81.0542 76.5336 80.427 76.7238 79.7938 76.8804C76.3676 77.7278 72.7662 77.5929 69.4096 76.4881C70.4788 77.3898 71.1171 78.7283 71.1171 80.1622V108.577C71.1171 109.386 70.2534 109.902 69.5409 109.519L45.3528 96.5077C43.7951 95.6698 42.8236 94.044 42.8236 92.2752V64.2922C42.8236 63.697 43.2918 63.259 43.8242 63.2235L37.774 60.0147L37.7465 60.0002L35.379 58.7639Z" fill="#ACCDFF"/>
<defs>
<filter id="filter0_f" x="1.56489" y="40.0056" width="92.2079" height="102.412" filterUnits="userSpaceOnUse" color-interpolation-filters="sRGB">
<feFlood flood-opacity="0" result="BackgroundImageFix"/>
<feBlend mode="normal" in="SourceGraphic" in2="BackgroundImageFix" result="shape"/>
<feGaussianBlur stdDeviation="11.3122" result="effect1_foregroundBlur"/>
</filter>
<linearGradient id="paint0_linear" x1="24.192" y1="138.551" x2="97.4124" y2="61.8019" gradientUnits="userSpaceOnUse">
<stop stop-color="#3888FF"/>
<stop offset="1" stop-color="#1D72D8"/>
</linearGradient>
</defs>
</svg>
