<svg width="28" height="28" viewBox="0 0 28 28" fill="none" xmlns="http://www.w3.org/2000/svg">
<path fill-rule="evenodd" clip-rule="evenodd" d="M14.21 26.9699C21.6532 26.8605 27.65 20.8642 27.65 13.485C27.65 6.03742 21.5387 0 14 0C6.46129 0 0.349976 6.03742 0.349976 13.485C0.349976 17.4184 2.05472 20.9585 4.77413 23.4235C5.20845 23.8844 4.90321 24.3644 4.56568 24.8213C4.24215 25.2593 3.94516 25.9429 4.16735 26.6326C4.46776 27.5653 5.3251 28.0309 6.36523 27.9984C7.81149 27.9532 9.88053 27.0335 14.21 26.9699Z" fill="url(#paint0_linear)"/>
<path opacity="0.6" d="M13.1233 18.1403L10.1762 16.6176C9.80738 16.427 9.57731 16.0573 9.57731 15.6549V12.3802C9.57731 11.888 10.1206 11.5712 10.5752 11.7983L13.5167 13.2675C13.8933 13.4557 14.1296 13.8296 14.1296 14.2374V16.1539V17.5627C14.1296 18.0589 13.5782 18.3754 13.1233 18.1403Z" fill="white"/>
<path opacity="0.2" d="M13.5994 14.5598L10.3393 15.9069C10.2475 15.9449 10.2421 16.0662 10.3302 16.1112L13.422 17.6914C13.5021 17.7323 13.5994 17.6774 13.5994 17.5913V14.5598Z" fill="#609FFF"/>
<path fill-rule="evenodd" clip-rule="evenodd" d="M15.6591 5.46984C14.6325 4.94517 13.415 4.93351 12.3784 5.43842L7.46201 7.83293C7.17713 7.97168 7.05993 8.31255 7.20022 8.59428C7.34052 8.87601 7.6852 8.99191 7.97007 8.85317L12.8864 6.45865C13.5957 6.11319 14.4287 6.12117 15.1311 6.48015L20.5399 9.24444C20.8237 9.38948 20.8141 9.79404 20.5237 9.92577L18.5568 10.8181C18.4643 10.5422 18.2683 10.2938 17.9669 10.1349L15.1061 8.62625C14.3716 8.2389 13.4869 8.23714 12.7507 8.62154L11.4325 9.30993C11.1676 9.44823 11.0678 9.76984 11.2096 10.0283C11.3513 10.2867 11.6809 10.3841 11.9458 10.2458L13.264 9.55738C13.6781 9.34115 14.1757 9.34215 14.5889 9.56003L17.4497 11.0687C17.541 11.1168 17.5549 11.2304 17.4952 11.2997L14.4443 12.6838C14.1405 12.8217 13.7891 12.8117 13.4939 12.6568L10.0904 10.8716L8.39605 9.99663C7.24762 9.40356 5.87268 10.2275 5.87268 11.5087V16.6939C5.87268 17.7616 6.47749 18.7392 7.43869 19.2253L12.2979 21.6826C13.3311 22.2051 14.5542 22.2093 15.5911 21.694L20.5619 19.2233C21.533 18.7407 22.1458 17.7578 22.1458 16.683V12.3992C22.1458 12.0852 21.8884 11.8306 21.5709 11.8306C21.2533 11.8306 20.9959 12.0852 20.9959 12.3992V16.683C20.9959 17.3278 20.6282 17.9176 20.0456 18.2072L15.0747 20.6778C14.3653 21.0304 13.5284 21.0275 12.8215 20.6701L7.96223 18.2127C7.38552 17.9211 7.02263 17.3345 7.02263 16.6939V11.5087C7.02263 11.0817 7.48094 10.807 7.86375 11.0047L9.23649 11.7136C9.11753 11.8958 9.04692 12.1487 9.04692 12.39V15.6425C9.04692 16.2401 9.38121 16.7894 9.91717 17.0726L12.5194 18.4472L12.9199 18.6509C13.3015 18.8104 13.7293 18.9068 14.0415 18.9068C14.3836 18.9068 14.8099 18.8035 15.1815 18.6339C15.2172 18.6188 15.36 18.5443 15.3951 18.5254L18.173 17.0344C18.7035 16.7496 19.0335 16.2032 19.0335 15.6095V13.9461C19.0335 13.653 18.7915 13.4154 18.493 13.4154C18.1946 13.4154 17.9526 13.653 17.9526 13.9461V15.6095C17.9526 15.8151 17.8383 16.0044 17.6546 16.103L14.7694 17.6516C14.6844 17.6972 14.5808 17.6369 14.5808 17.5418V14.1805C14.5808 14.0327 14.6004 13.8859 14.7401 13.8091C14.8395 13.7545 14.8634 13.7449 14.9237 13.7175L21.0032 10.9594C22.1646 10.4325 22.203 8.81429 21.0678 8.23413L15.6591 5.46984ZM10.1278 12.39C10.1278 12.2686 10.1901 12.2285 10.257 12.2546L12.9655 13.6429C13.082 13.7041 13.316 13.8122 13.316 13.8122C13.434 13.866 13.4996 14.066 13.4996 14.2249V17.5502C13.4996 17.6449 13.3967 17.7053 13.3118 17.6605L10.4292 16.1378C10.2436 16.0397 10.1278 15.8495 10.1278 15.6425V12.39Z" fill="white"/>
<defs>
<linearGradient id="paint0_linear" x1="24.1635" y1="26.3427" x2="10.0844" y2="11.1348" gradientUnits="userSpaceOnUse">
<stop stop-color="#3888FF"/>
<stop offset="1" stop-color="#1D72D8"/>
</linearGradient>
</defs>
</svg>
