<svg width="32" height="32" viewBox="0 0 32 32" fill="none" xmlns="http://www.w3.org/2000/svg">
<path fill-rule="evenodd" clip-rule="evenodd" d="M24.1307 10.8967C23.9702 10.3822 23.6186 9.91764 23.0723 9.62237L17.9836 6.8722C16.6771 6.1661 15.1034 6.16287 13.794 6.86362L11.4491 8.11851C10.978 8.37062 10.8005 8.95689 11.0526 9.42799C11.3048 9.89908 11.891 10.0766 12.3621 9.82448L14.707 8.5696C15.4435 8.17543 16.3287 8.17724 17.0636 8.57442L22.1523 11.3246C22.3339 11.4227 22.3433 11.6705 22.1896 11.7871L24.1307 10.8967Z" fill="#ACCDFF"/>
<path d="M14.2889 24.2161L9.12874 21.4403C8.48287 21.0929 8.08003 20.4188 8.08003 19.6854V13.7157C8.08003 12.8186 9.03137 12.241 9.82731 12.6549L14.9776 15.3334C15.6371 15.6763 16.0509 16.3579 16.0509 17.1013V20.595V23.1631C16.0509 24.0676 15.0854 24.6445 14.2889 24.2161Z" fill="#3F91E8"/>
<path d="M15.0844 17.6891L9.46204 20.1448C9.30371 20.2139 9.29448 20.435 9.44648 20.5172L14.7785 23.3977C14.9166 23.4723 15.0844 23.3723 15.0844 23.2153V17.6891Z" fill="#3B89E0"/>
<g filter="url(#filter0_f)">
<path d="M9.0248 13.5609V14.7317C9.0248 15.9454 9.79545 17.0252 10.9432 17.4197L15.0471 18.8304V22.218C15.4402 24.4977 13.0919 26.2746 11.0094 25.2672L9.40656 24.4918C9.40656 24.4918 6.47993 23.1996 5.63358 21.5024C4.59274 19.4152 5.03362 15.5849 6.68076 13.9411C7.70686 12.9171 9.0248 13.5609 9.0248 13.5609Z" fill="#41A5DE" fill-opacity="0.4"/>
</g>
<path fill-rule="evenodd" clip-rule="evenodd" d="M18.9696 1.11832C17.1189 0.16189 14.924 0.140634 13.0552 1.06105L4.19195 5.42608C3.67838 5.67901 3.46709 6.30038 3.72001 6.81395C3.97294 7.32753 4.59432 7.53882 5.10789 7.28589L13.9711 2.92086C15.2498 2.2911 16.7515 2.30564 18.0178 2.96004L27.7686 7.99915C28.2803 8.26355 28.263 9.00104 27.7395 9.24117L16.7795 14.2689C16.2319 14.5202 15.5984 14.5019 15.0661 14.2196L8.93046 10.9654L5.87583 9.37034C3.80547 8.28921 1.32673 9.79117 1.32673 12.1268V21.579C1.32673 23.5253 2.41708 25.3074 4.14991 26.1935L12.9101 30.6731C14.7727 31.6255 16.9778 31.6332 18.847 30.6938L27.8084 26.19C29.559 25.3101 30.6639 23.5184 30.6639 21.5591V13.7501C30.6639 13.1776 30.1998 12.7136 29.6273 12.7136C29.0548 12.7136 28.5908 13.1776 28.5908 13.7501V21.5591C28.5908 22.7346 27.9279 23.8097 26.8775 24.3376L17.916 28.8414C16.6371 29.4842 15.1284 29.4789 13.854 28.8273L5.09376 24.3477C4.05406 23.8161 3.39985 22.7468 3.39985 21.579V12.1268C3.39985 11.3483 4.2261 10.8476 4.91622 11.208L7.96496 12.8L7.97084 12.8031L14.0948 16.0511C15.1974 16.6359 16.5095 16.6737 17.6439 16.1533L28.6039 11.1255C30.6977 10.165 30.7669 7.21503 28.7204 6.15743L18.9696 1.11832Z" fill="url(#paint0_linear)"/>
<path fill-rule="evenodd" clip-rule="evenodd" d="M7.4599 12.5363C7.24249 12.8693 7.11316 13.2708 7.11316 13.7157V19.6854C7.11316 20.7748 7.71157 21.7762 8.67101 22.2923L13.3293 24.7981L14.0462 25.1696C14.7293 25.4603 15.4952 25.636 16.0541 25.636C16.6665 25.636 17.4295 25.4477 18.0947 25.1386C18.1586 25.111 18.4142 24.9751 18.4771 24.9408C18.4191 24.9741 18.5376 24.9093 18.4771 24.9408L23.4498 22.2227C24.3996 21.7036 24.9903 20.7076 24.9903 19.6252V16.593C24.9903 16.0587 24.5571 15.6255 24.0228 15.6255C23.4885 15.6255 23.0553 16.0587 23.0553 16.593V19.6252C23.0553 20.0001 22.8508 20.3451 22.5218 20.5249L17.357 23.3479C17.2049 23.431 17.0194 23.321 17.0194 23.1477V17.0203C17.0194 16.7357 17.1372 16.4696 17.3359 16.2794C17.2039 16.3272 17.0701 16.3678 16.9351 16.4012C16.2041 16.5819 15.4358 16.5532 14.7198 16.3175C14.9479 16.5098 15.084 16.7954 15.084 17.1013V23.1631C15.084 23.3357 14.8998 23.4458 14.7478 23.364L9.58764 20.5883C9.25534 20.4096 9.04807 20.0627 9.04807 19.6854V13.7157C9.04807 13.5887 9.14796 13.4953 9.26154 13.4877L7.97084 12.8031L7.96497 12.8001L7.4599 12.5363Z" fill="#ACCDFF"/>
<defs>
<filter id="filter0_f" x="0.246146" y="8.5346" width="19.671" height="21.8478" filterUnits="userSpaceOnUse" color-interpolation-filters="sRGB">
<feFlood flood-opacity="0" result="BackgroundImageFix"/>
<feBlend mode="normal" in="SourceGraphic" in2="BackgroundImageFix" result="shape"/>
<feGaussianBlur stdDeviation="2.41327" result="effect1_foregroundBlur"/>
</filter>
<linearGradient id="paint0_linear" x1="5.07332" y1="29.5575" x2="20.6937" y2="13.1844" gradientUnits="userSpaceOnUse">
<stop stop-color="#3888FF"/>
<stop offset="1" stop-color="#1D72D8"/>
</linearGradient>
</defs>
</svg>
