<svg width="28" height="28" viewBox="0 0 28 28" fill="none" xmlns="http://www.w3.org/2000/svg">
<g clip-path="url(#clip0)">
<path d="M24.5441 -2.65518e-05L14.0003 -2.60909e-05L12.0173 4.65L12.0173 9.08093L14.0003 14.0003L18.9191 14.0003L18.9191 16.831C18.9191 18.0545 19.9111 19.0465 21.1346 19.0465C22.3581 19.0465 23.35 18.0545 23.35 16.831L23.35 14.0003L28 14.0003L28 3.45642C28 1.54752 26.4525 -2.66352e-05 24.5441 -2.65518e-05Z" fill="#72C392"/>
<path d="M21.1346 17.9952C19.9111 17.9952 18.9191 17.0032 18.9191 15.7797L18.9191 16.831C18.9191 18.0545 19.9111 19.0465 21.1346 19.0465C22.3581 19.0465 23.35 18.0545 23.35 16.831L23.35 15.7797C23.35 17.0032 22.358 17.9952 21.1346 17.9952V17.9952Z" fill="#54A473"/>
<path d="M28 14.0003L28 12.949L23.35 12.949L23.35 14.0003L28 14.0003Z" fill="#54A473"/>
<path d="M12.0174 8.02968L12.0174 9.08095L14.0003 14.0003L18.9191 14.0003L18.9191 12.949L14.0003 12.949L12.0174 8.02968Z" fill="#54A473"/>
<path d="M6.86551 5.0171C5.64207 5.0171 4.31937e-05 14.0003 4.31937e-05 14.0003L4.36546e-05 24.5441C4.3738e-05 26.453 1.54759 28 3.45593 28L14.0003 28L14.0003 23.3506L10.169 23.3506C8.94546 23.3506 7.95351 22.3586 7.95351 21.1351C7.95351 19.911 8.94551 18.9196 10.169 18.9196L14.0003 18.9196L14.0003 14.0003C14.0003 14.0003 8.08901 5.0171 6.86551 5.0171V5.0171Z" fill="#B292E9"/>
<path d="M7.95352 20.2921C7.95352 19.068 8.94552 18.0766 10.169 18.0766L14.0003 18.0766L14.0003 18.9196L10.169 18.9196C9.08963 18.9196 8.19099 19.6913 7.99409 20.7135C7.96778 20.577 7.95352 20.4362 7.95352 20.2921V20.2921Z" fill="#8A6DBC"/>
<path d="M4.3602e-05 23.3427L4.36546e-05 24.5441C4.3738e-05 26.453 1.54759 28 3.45593 28L14.0003 28L14.0003 26.7986L3.45593 26.7986C1.54759 26.7986 4.36855e-05 25.2516 4.3602e-05 23.3427Z" fill="#8A6DBC"/>
<path d="M14.0003 -6.78196e-06L3.45592 -6.32105e-06C1.54758 -6.23763e-06 3.50747e-05 1.54754 3.51582e-05 3.45644L3.5619e-05 14.0003L4.65006 14.0003L4.65006 10.1695C4.65006 8.94602 5.64206 7.95402 6.86556 7.95402C8.08905 7.95402 9.08099 8.94602 9.08099 10.1695L9.08099 14.0003L14.0003 14.0003L14.0003 9.08095L17.8311 9.08095C19.0546 9.08095 20.0466 8.08951 20.0466 6.86546C20.0466 5.64196 19.0546 4.64996 17.8311 4.64996L14.0003 4.64996L14.0003 -6.78196e-06Z" fill="#E9787A"/>
<path d="M17.8311 8.03397C18.8742 8.03397 19.7485 7.31307 19.9838 6.34202C20.0245 6.50991 20.0466 6.68501 20.0466 6.86535C20.0466 8.0894 19.0546 9.08084 17.8311 9.08084L14.0003 9.08084L14.0003 8.03397L17.8311 8.03397Z" fill="#D76164"/>
<path d="M4.65007 10.1695L4.65007 9.12262C4.65007 7.89913 5.64207 6.90713 6.86556 6.90713C8.08905 6.90713 9.08099 7.89913 9.08099 9.12262L9.08099 10.1695C9.08099 8.946 8.08899 7.954 6.86556 7.954C5.64207 7.954 4.65007 8.946 4.65007 10.1695Z" fill="#D76164"/>
<path d="M14.0003 14.0002L14.0003 12.9534L9.08101 12.9534L9.08101 14.0002L14.0003 14.0002Z" fill="#D76164"/>
<path d="M4.65005 14.0002L4.65005 12.9534L2.00478e-05 12.9534L2.00936e-05 14.0002L4.65005 14.0002Z" fill="#D76164"/>
</g>
<defs>
<clipPath id="clip0">
<rect width="28" height="28" fill="white"/>
</clipPath>
</defs>
</svg>
