<svg width="150" height="150" viewBox="0 0 150 150" fill="none" xmlns="http://www.w3.org/2000/svg">
<g clip-path="url(#clip0)">
<path d="M131.181 -0.000475236L75.073 -0.000472767L64.5207 24.9104L64.5207 48.6475L75.073 75.001L101.248 75.001L101.248 90.1658C101.248 96.7203 106.527 102.035 113.037 102.035C119.548 102.035 124.827 96.7203 124.827 90.1658L124.827 75.001L149.572 75.001L149.572 18.5162C149.572 8.28996 141.336 -0.000475683 131.181 -0.000475236Z" fill="#72C392"/>
<path d="M113.037 96.4028C106.527 96.4028 101.248 91.0885 101.248 84.534L101.248 90.1658C101.248 96.7203 106.527 102.035 113.037 102.035C119.548 102.035 124.827 96.7203 124.827 90.1658L124.827 84.534C124.827 91.0885 119.548 96.4028 113.037 96.4028V96.4028Z" fill="#54A473"/>
<path d="M149.572 75.001L149.572 69.3692L124.827 69.3692L124.827 75.001L149.572 75.001Z" fill="#54A473"/>
<path d="M64.5211 43.0157L64.5211 48.6475L75.0728 75.001L101.248 75.001L101.248 69.3692L75.0728 69.3692L64.5211 43.0157Z" fill="#54A473"/>
<path d="M37.1058 26.8772C30.5954 26.8772 0.571688 75.0015 0.571688 75.0015L0.571691 131.486C0.571691 141.713 8.80687 150 18.962 150L75.0732 150L75.0732 125.092L54.6848 125.092C48.1741 125.092 42.8955 119.778 42.8955 113.223C42.8955 106.666 48.1744 101.355 54.6848 101.355L75.0732 101.355L75.0732 75.0012C75.0732 75.0015 43.6165 26.8772 37.1058 26.8772V26.8772Z" fill="#B292E9"/>
<path d="M42.8955 108.707C42.8955 102.15 48.1744 96.8386 54.6848 96.8386L75.0732 96.8386L75.0732 101.355L54.6848 101.355C48.9413 101.355 44.1592 105.489 43.1114 110.965C42.9714 110.234 42.8955 109.48 42.8955 108.707V108.707Z" fill="#8A6DBC"/>
<path d="M0.571683 125.05L0.571683 131.486C0.571684 141.713 8.80687 150 18.962 150L75.0732 150L75.0732 143.564L18.962 143.564C8.80687 143.564 0.571683 135.276 0.571683 125.05Z" fill="#8A6DBC"/>
<path d="M75.0731 -0.000165197L18.9618 -0.000162711C8.80675 -0.000162261 0.571579 8.29028 0.571579 18.5165L0.571582 75.0013L25.3164 75.0013L25.3164 54.4794C25.3164 47.925 30.5952 42.6107 37.106 42.6107C43.6167 42.6107 48.8953 47.925 48.8953 54.4794L48.8953 75.0013L75.0731 75.0013L75.0731 48.6478L95.4582 48.6478C101.969 48.6478 107.248 43.3366 107.248 36.7791C107.248 30.2247 101.969 24.9104 95.4582 24.9104L75.0731 24.9104L75.0731 -0.000165197Z" fill="#E9787A"/>
<path d="M95.4582 43.039C101.009 43.039 105.662 39.177 106.914 33.975C107.13 34.8744 107.248 35.8124 107.248 36.7785C107.248 43.336 101.969 48.6472 95.4582 48.6472L75.0731 48.6472L75.0731 43.039L95.4582 43.039Z" fill="#D76164"/>
<path d="M25.3165 54.4794L25.3165 48.8712C25.3165 42.3168 30.5954 37.0025 37.1061 37.0025C43.6168 37.0025 48.8954 42.3168 48.8954 48.8712L48.8954 54.4794C48.8954 47.925 43.6165 42.6107 37.1061 42.6107C30.5954 42.6107 25.3165 47.925 25.3165 54.4794Z" fill="#D76164"/>
<path d="M75.0732 75.0013L75.0732 69.393L48.8954 69.393L48.8954 75.0013L75.0732 75.0013Z" fill="#D76164"/>
<path d="M25.3163 75.0013L25.3163 69.393L0.571454 69.393L0.571454 75.0013L25.3163 75.0013Z" fill="#D76164"/>
</g>
<defs>
<clipPath id="clip0">
<rect width="149" height="150" fill="white" transform="translate(0.571411)"/>
</clipPath>
</defs>
</svg>
