<svg width="151" height="150" viewBox="0 0 151 150" fill="none" xmlns="http://www.w3.org/2000/svg">
<g clip-path="url(#clip0)">
<path d="M132.469 -0.000457072L75.9838 -0.000454603L65.3607 24.9104L65.3607 48.6475L75.9838 75.001L102.334 75.001L102.334 90.1658C102.334 96.7203 107.649 102.035 114.203 102.035C120.757 102.035 126.071 96.7203 126.071 90.1658L126.071 75.001L150.982 75.001L150.982 18.5162C150.982 8.28998 142.692 -0.000457519 132.469 -0.000457072Z" fill="#72C392"/>
<path d="M114.203 96.4028C107.649 96.4028 102.334 91.0885 102.334 84.534L102.334 90.1658C102.334 96.7203 107.649 102.035 114.203 102.035C120.757 102.035 126.071 96.7203 126.071 90.1658L126.071 84.534C126.071 91.0885 120.757 96.4028 114.203 96.4028V96.4028Z" fill="#54A473"/>
<path d="M150.982 75.001L150.982 69.3692L126.071 69.3692L126.071 75.001L150.982 75.001Z" fill="#54A473"/>
<path d="M65.3611 43.0157L65.3611 48.6475L75.9837 75.001L102.334 75.001L102.334 69.3692L75.9837 69.3692L65.3611 43.0157Z" fill="#54A473"/>
<path d="M37.7618 26.8772C31.2076 26.8772 0.982467 75.0015 0.982467 75.0015L0.982469 131.486C0.98247 141.713 9.27292 150 19.4962 150L75.984 150L75.984 125.092L55.4588 125.092C48.9043 125.092 43.5903 119.778 43.5903 113.223C43.5903 106.666 48.9046 101.355 55.4588 101.355L75.984 101.355L75.984 75.0012C75.984 75.0015 44.3162 26.8772 37.7618 26.8772V26.8772Z" fill="#B292E9"/>
<path d="M43.5904 108.707C43.5904 102.15 48.9047 96.8386 55.4588 96.8386L75.984 96.8386L75.984 101.355L55.4588 101.355C49.6767 101.355 44.8625 105.489 43.8077 110.965C43.6667 110.234 43.5904 109.48 43.5904 108.707V108.707Z" fill="#8A6DBC"/>
<path d="M0.982469 125.05L0.982469 131.486C0.98247 141.713 9.27292 150 19.4962 150L75.984 150L75.984 143.564L19.4962 143.564C9.27292 143.564 0.98247 135.276 0.982469 125.05Z" fill="#8A6DBC"/>
<path d="M75.9838 -0.000218835L19.496 -0.000216366C9.27278 -0.000215919 0.982341 8.29022 0.982341 18.5165L0.982344 75.0013L25.8932 75.0013L25.8932 54.4794C25.8932 47.9249 31.2075 42.6106 37.7619 42.6106C44.3163 42.6106 49.6303 47.9249 49.6303 54.4794L49.6303 75.0013L75.9838 75.0013L75.9838 48.6478L96.5058 48.6478C103.06 48.6478 108.374 43.3365 108.374 36.7791C108.374 30.2246 103.06 24.9103 96.5058 24.9103L75.9838 24.9103L75.9838 -0.000218835Z" fill="#E9787A"/>
<path d="M96.5058 43.039C102.094 43.039 106.778 39.177 108.038 33.975C108.256 34.8744 108.374 35.8124 108.374 36.7785C108.374 43.3359 103.06 48.6472 96.5058 48.6472L75.9838 48.6472L75.9838 43.039L96.5058 43.039Z" fill="#D76164"/>
<path d="M25.8933 54.4794L25.8933 48.8712C25.8933 42.3168 31.2076 37.0025 37.762 37.0025C44.3164 37.0025 49.6304 42.3168 49.6304 48.8712L49.6304 54.4794C49.6304 47.925 44.3161 42.6107 37.762 42.6107C31.2076 42.6107 25.8933 47.925 25.8933 54.4794Z" fill="#D76164"/>
<path d="M75.984 75.0013L75.984 69.393L49.6305 69.393L49.6305 75.0013L75.984 75.0013Z" fill="#D76164"/>
<path d="M25.8932 75.0013L25.8932 69.393L0.982258 69.393L0.982258 75.0013L25.8932 75.0013Z" fill="#D76164"/>
</g>
<defs>
<clipPath id="clip0">
<rect width="150" height="150" fill="white" transform="translate(0.982147)"/>
</clipPath>
</defs>
</svg>
