<svg width="151" height="150" viewBox="0 0 151 150" fill="none" xmlns="http://www.w3.org/2000/svg">
<g clip-path="url(#clip0)">
<path d="M150.09 5.35715V144.643C150.09 147.109 148.091 149.107 145.626 149.107H6.33926C3.87369 149.107 1.87495 147.109 1.87496 144.643L1.87525 5.35716C1.87525 2.8916 3.87399 0.892859 6.33954 0.892859H145.626C148.091 0.892859 150.09 2.89159 150.09 5.35715Z" fill="#F0F4F8" stroke="#E9ECEF" stroke-width="1.78572"/>
<path d="M0.982086 5.35715C0.982086 2.39847 3.38057 0 6.33924 0H145.625C148.584 0 150.982 2.39848 150.982 5.35715V40.0001H0.982086V5.35715Z" fill="#7E49DB"/>
<path d="M67.8103 49.8066H52.2333C50.1623 49.8066 48.4833 51.4856 48.4833 53.5566V69.1336C48.4833 71.2047 50.1623 72.8836 52.2333 72.8836H67.8103C69.8814 72.8836 71.5603 71.2047 71.5603 69.1336V53.5567C71.5603 51.4856 69.8814 49.8066 67.8103 49.8066Z" fill="#CCD5E3"/>
<path d="M100.502 49.8066H84.9254C82.8543 49.8066 81.1754 51.4856 81.1754 53.5566V69.1336C81.1754 71.2047 82.8543 72.8836 84.9254 72.8836H100.502C102.573 72.8836 104.252 71.2047 104.252 69.1336V53.5567C104.252 51.4856 102.573 49.8066 100.502 49.8066Z" fill="#CCD5E3"/>
<path d="M133.195 49.8066H117.618C115.547 49.8066 113.868 51.4856 113.868 53.5566V69.1336C113.868 71.2047 115.547 72.8836 117.618 72.8836H133.195C135.266 72.8836 136.945 71.2047 136.945 69.1336V53.5567C136.945 51.4856 135.266 49.8066 133.195 49.8066Z" fill="#CCD5E3"/>
<path d="M67.8103 82.4998H52.2333C50.1623 82.4998 48.4833 84.1788 48.4833 86.2498V101.827C48.4833 103.898 50.1623 105.577 52.2333 105.577H67.8103C69.8814 105.577 71.5603 103.898 71.5603 101.827V86.2498C71.5603 84.1788 69.8814 82.4998 67.8103 82.4998Z" fill="#A2BCF4"/>
<path d="M100.502 82.4998H84.9254C82.8543 82.4998 81.1754 84.1788 81.1754 86.2498V101.827C81.1754 103.898 82.8543 105.577 84.9254 105.577H100.502C102.573 105.577 104.252 103.898 104.252 101.827V86.2498C104.252 84.1788 102.573 82.4998 100.502 82.4998Z" fill="#CCD5E3"/>
<path d="M35.118 82.4998H19.541C17.4699 82.4998 15.791 84.1788 15.791 86.2498V101.827C15.791 103.898 17.4699 105.577 19.541 105.577H35.118C37.189 105.577 38.868 103.898 38.868 101.827V86.2498C38.868 84.1788 37.189 82.4998 35.118 82.4998Z" fill="#CCD5E3"/>
<path d="M133.195 82.4998H117.618C115.547 82.4998 113.868 84.1788 113.868 86.2498V101.827C113.868 103.898 115.547 105.577 117.618 105.577H133.195C135.266 105.577 136.945 103.898 136.945 101.827V86.2498C136.945 84.1788 135.266 82.4998 133.195 82.4998Z" fill="#CCD5E3"/>
<path d="M67.8103 115.193H52.2333C50.1623 115.193 48.4833 116.872 48.4833 118.943V134.52C48.4833 136.591 50.1623 138.27 52.2333 138.27H67.8103C69.8814 138.27 71.5603 136.591 71.5603 134.52V118.943C71.5603 116.872 69.8814 115.193 67.8103 115.193Z" fill="#CCD5E3"/>
<path d="M35.118 115.193H19.541C17.4699 115.193 15.791 116.872 15.791 118.943V134.52C15.791 136.591 17.4699 138.27 19.541 138.27H35.118C37.189 138.27 38.868 136.591 38.868 134.52V118.943C38.868 116.872 37.189 115.193 35.118 115.193Z" fill="#CCD5E3"/>
<path d="M24.0592 21.1549C24.0592 19.0307 25.7812 17.3087 27.9054 17.3087H125.983C128.107 17.3087 129.829 19.0307 129.829 21.1549V21.1549C129.829 23.2791 128.107 25.0011 125.983 25.0011H27.9054C25.7812 25.0011 24.0592 23.2791 24.0592 21.1549V21.1549Z" fill="white" fill-opacity="0.4"/>
</g>
<defs>
<clipPath id="clip0">
<rect width="150" height="150" fill="white" transform="translate(0.982178)"/>
</clipPath>
</defs>
</svg>
