<svg width="28" height="28" viewBox="0 0 28 28" fill="none" xmlns="http://www.w3.org/2000/svg">
<g clip-path="url(#clip0)">
<path d="M27.8334 1V27C27.8334 27.4603 27.4603 27.8334 27 27.8334H0.999942C0.539704 27.8334 0.166607 27.4603 0.166608 27L0.166662 1C0.166663 0.539762 0.53976 0.166667 0.999997 0.166667H27C27.4603 0.166667 27.8334 0.539764 27.8334 1Z" fill="#F0F4F8" stroke="#E9ECEF" stroke-width="0.333334"/>
<path d="M-6.10352e-05 1C-6.10352e-05 0.447717 0.447655 0 0.999941 0H27C27.5523 0 28 0.447716 28 1V7.46668H-6.10352e-05V1Z" fill="#7E49DB"/>
<path d="M12.4746 9.29712H9.56695C9.18035 9.29712 8.86694 9.61052 8.86694 9.99712V12.9048C8.86694 13.2914 9.18034 13.6048 9.56695 13.6048H12.4746C12.8612 13.6048 13.1746 13.2914 13.1746 12.9048V9.99712C13.1746 9.61052 12.8612 9.29712 12.4746 9.29712Z" fill="#CCD5E3"/>
<path d="M18.5771 9.29712H15.6694C15.2828 9.29712 14.9694 9.61052 14.9694 9.99712V12.9048C14.9694 13.2914 15.2828 13.6048 15.6694 13.6048H18.5771C18.9637 13.6048 19.2771 13.2914 19.2771 12.9048V9.99712C19.2771 9.61052 18.9637 9.29712 18.5771 9.29712Z" fill="#CCD5E3"/>
<path d="M24.6798 9.29712H21.7721C21.3855 9.29712 21.0721 9.61052 21.0721 9.99712V12.9048C21.0721 13.2914 21.3855 13.6048 21.7721 13.6048H24.6798C25.0664 13.6048 25.3799 13.2914 25.3799 12.9048V9.99712C25.3799 9.61052 25.0664 9.29712 24.6798 9.29712Z" fill="#CCD5E3"/>
<path d="M12.4746 15.3999H9.56695C9.18035 15.3999 8.86694 15.7133 8.86694 16.0999V19.0076C8.86694 19.3942 9.18034 19.7076 9.56695 19.7076H12.4746C12.8612 19.7076 13.1746 19.3942 13.1746 19.0076V16.0999C13.1746 15.7133 12.8612 15.3999 12.4746 15.3999Z" fill="#A2BCF4"/>
<path d="M18.5771 15.3999H15.6694C15.2828 15.3999 14.9694 15.7133 14.9694 16.0999V19.0076C14.9694 19.3942 15.2828 19.7076 15.6694 19.7076H18.5771C18.9637 19.7076 19.2771 19.3942 19.2771 19.0076V16.0999C19.2771 15.7133 18.9637 15.3999 18.5771 15.3999Z" fill="#CCD5E3"/>
<path d="M6.37205 15.3999H3.46435C3.07774 15.3999 2.76434 15.7133 2.76434 16.0999V19.0076C2.76434 19.3942 3.07774 19.7076 3.46435 19.7076H6.37205C6.75865 19.7076 7.07205 19.3942 7.07205 19.0076V16.0999C7.07205 15.7133 6.75865 15.3999 6.37205 15.3999Z" fill="#CCD5E3"/>
<path d="M24.6798 15.3999H21.7721C21.3855 15.3999 21.0721 15.7133 21.0721 16.0999V19.0076C21.0721 19.3942 21.3855 19.7076 21.7721 19.7076H24.6798C25.0664 19.7076 25.3799 19.3942 25.3799 19.0076V16.0999C25.3799 15.7133 25.0664 15.3999 24.6798 15.3999Z" fill="#CCD5E3"/>
<path d="M12.4746 21.5027H9.56695C9.18035 21.5027 8.86694 21.8161 8.86694 22.2027V25.1104C8.86694 25.497 9.18034 25.8104 9.56695 25.8104H12.4746C12.8612 25.8104 13.1746 25.497 13.1746 25.1104V22.2027C13.1746 21.8161 12.8612 21.5027 12.4746 21.5027Z" fill="#CCD5E3"/>
<path d="M6.37205 21.5027H3.46435C3.07774 21.5027 2.76434 21.8161 2.76434 22.2027V25.1104C2.76434 25.497 3.07774 25.8104 3.46435 25.8104H6.37205C6.75865 25.8104 7.07205 25.497 7.07205 25.1104V22.2027C7.07205 21.8161 6.75865 21.5027 6.37205 21.5027Z" fill="#CCD5E3"/>
<path d="M4.30774 3.94891C4.30774 3.55239 4.62918 3.23096 5.02569 3.23096H23.3334C23.73 3.23096 24.0514 3.55239 24.0514 3.94891V3.94891C24.0514 4.34542 23.73 4.66686 23.3334 4.66686H5.02569C4.62918 4.66686 4.30774 4.34542 4.30774 3.94891V3.94891Z" fill="white" fill-opacity="0.4"/>
</g>
<defs>
<clipPath id="clip0">
<rect width="28" height="28" fill="white"/>
</clipPath>
</defs>
</svg>
