<svg width="150" height="150" viewBox="0 0 150 150" fill="none" xmlns="http://www.w3.org/2000/svg">
<g clip-path="url(#clip0)">
<path d="M148.679 5.35715V144.643C148.679 147.109 146.68 149.107 144.215 149.107H5.92846C3.46289 149.107 1.46415 147.109 1.46416 144.643L1.46445 5.35714C1.46445 2.89158 3.46318 0.892859 5.92874 0.892859H144.215C146.68 0.892859 148.679 2.89159 148.679 5.35715Z" fill="#F0F4F8" stroke="#E9ECEF" stroke-width="1.78572"/>
<path d="M0.571289 5.35715C0.571289 2.39848 2.96977 0 5.92844 0H144.214C147.173 0 149.572 2.39848 149.572 5.35715V40.0001H0.571289V5.35715Z" fill="#7E49DB"/>
<path d="M66.954 49.8066H51.4809C49.4236 49.8066 47.7559 51.4856 47.7559 53.5566V69.1336C47.7559 71.2047 49.4236 72.8836 51.4809 72.8836H66.954C69.0113 72.8836 70.679 71.2047 70.679 69.1336V53.5567C70.679 51.4856 69.0113 49.8066 66.954 49.8066Z" fill="#CCD5E3"/>
<path d="M99.428 49.8066H83.9549C81.8976 49.8066 80.2299 51.4856 80.2299 53.5566V69.1336C80.2299 71.2047 81.8976 72.8836 83.9549 72.8836H99.428C101.485 72.8836 103.153 71.2047 103.153 69.1336V53.5567C103.153 51.4856 101.485 49.8066 99.428 49.8066Z" fill="#CCD5E3"/>
<path d="M131.903 49.8066H116.43C114.373 49.8066 112.705 51.4856 112.705 53.5566V69.1336C112.705 71.2047 114.373 72.8836 116.43 72.8836H131.903C133.96 72.8836 135.628 71.2047 135.628 69.1336V53.5567C135.628 51.4856 133.96 49.8066 131.903 49.8066Z" fill="#CCD5E3"/>
<path d="M66.954 82.4998H51.4809C49.4236 82.4998 47.7559 84.1788 47.7559 86.2498V101.827C47.7559 103.898 49.4236 105.577 51.4809 105.577H66.954C69.0113 105.577 70.679 103.898 70.679 101.827V86.2498C70.679 84.1788 69.0113 82.4998 66.954 82.4998Z" fill="#A2BCF4"/>
<path d="M99.428 82.4998H83.9549C81.8976 82.4998 80.2299 84.1788 80.2299 86.2498V101.827C80.2299 103.898 81.8976 105.577 83.9549 105.577H99.428C101.485 105.577 103.153 103.898 103.153 101.827V86.2498C103.153 84.1788 101.485 82.4998 99.428 82.4998Z" fill="#CCD5E3"/>
<path d="M34.4796 82.4998H19.0065C16.9492 82.4998 15.2815 84.1788 15.2815 86.2498V101.827C15.2815 103.898 16.9492 105.577 19.0065 105.577H34.4796C36.5369 105.577 38.2046 103.898 38.2046 101.827V86.2498C38.2046 84.1788 36.5369 82.4998 34.4796 82.4998Z" fill="#CCD5E3"/>
<path d="M131.903 82.4998H116.43C114.373 82.4998 112.705 84.1788 112.705 86.2498V101.827C112.705 103.898 114.373 105.577 116.43 105.577H131.903C133.96 105.577 135.628 103.898 135.628 101.827V86.2498C135.628 84.1788 133.96 82.4998 131.903 82.4998Z" fill="#CCD5E3"/>
<path d="M66.954 115.193H51.4809C49.4236 115.193 47.7559 116.872 47.7559 118.943V134.52C47.7559 136.591 49.4236 138.27 51.4809 138.27H66.954C69.0113 138.27 70.679 136.591 70.679 134.52V118.943C70.679 116.872 69.0113 115.193 66.954 115.193Z" fill="#CCD5E3"/>
<path d="M34.4796 115.193H19.0065C16.9492 115.193 15.2815 116.872 15.2815 118.943V134.52C15.2815 136.591 16.9492 138.27 19.0065 138.27H34.4796C36.5369 138.27 38.2046 136.591 38.2046 134.52V118.943C38.2046 116.872 36.5369 115.193 34.4796 115.193Z" fill="#CCD5E3"/>
<path d="M23.4945 21.1549C23.4945 19.0307 25.205 17.3087 27.315 17.3087H124.738C126.848 17.3087 128.559 19.0307 128.559 21.1549V21.1549C128.559 23.2791 126.848 25.0011 124.738 25.0011H27.315C25.205 25.0011 23.4945 23.2791 23.4945 21.1549V21.1549Z" fill="white" fill-opacity="0.4"/>
</g>
<defs>
<clipPath id="clip0">
<rect width="149" height="150" fill="white" transform="translate(0.571411)"/>
</clipPath>
</defs>
</svg>
